<?xml version="1.0" encoding="utf-8"?>
<!-- Generator: Adobe Illustrator 16.0.2, SVG Export Plug-In . SVG Version: 6.00 Build 0)  -->
<!DOCTYPE svg PUBLIC "-//W3C//DTD SVG 1.1//EN" "http://www.w3.org/Graphics/SVG/1.1/DTD/svg11.dtd">
<svg version="1.1" id="Layer_1" xmlns="http://www.w3.org/2000/svg" xmlns:xlink="http://www.w3.org/1999/xlink" x="0px" y="0px"
	 width="16px" height="16px" viewBox="0 0 16 16" enable-background="new 0 0 16 16" xml:space="preserve">
<g id="American-football">
	<path d="M13.75,0.02C13.53,0.01,13.31,0,13.09,0c-3.35,0-6.7,1.32-9.26,3.97c-1.37,1.42-2.36,3.07-3,4.84L0.81,8.82
		c0.01,0.01,0.01,0.01,0.01,0.02c-0.55,1.55-0.83,3.19-0.82,4.83c0.01,1.26,1.04,2.25,2.26,2.31C2.47,16,2.69,16,2.91,16
		c3.35,0,6.7-1.32,9.26-3.96c2.59-2.68,3.86-6.2,3.83-9.7C15.99,1.07,14.959,0.08,13.75,0.02z M2.91,15c-0.2,0-0.4,0-0.6-0.01
		c-0.73-0.04-1.3-0.62-1.31-1.33c-0.01-1.27,0.16-2.51,0.49-3.69c1.5,2.28,3.48,3.8,4.65,4.57C5.1,14.84,4.02,15,2.91,15z
		 M11.12,7.65c0.2,0.19,0.2,0.51,0,0.7c-0.09,0.1-0.22,0.15-0.35,0.15s-0.26-0.05-0.35-0.15L9.38,7.31L8.7,7.99l1.04,1.04
		c0.19,0.2,0.19,0.51,0,0.71c-0.1,0.1-0.23,0.15-0.35,0.15c-0.13,0-0.26-0.05-0.36-0.15L7.99,8.7L7.26,9.44l1.03,1.04
		c0.2,0.19,0.2,0.51,0,0.7c-0.09,0.1-0.22,0.15-0.35,0.15s-0.25-0.05-0.35-0.15l-1.04-1.03L5.5,11.21c-0.1,0.1-0.23,0.15-0.36,0.15
		s-0.25-0.05-0.35-0.15c-0.2-0.19-0.2-0.51,0-0.7l1.06-1.07L4.76,8.35c-0.2-0.19-0.2-0.51,0-0.7c0.2-0.2,0.51-0.2,0.71,0l1.08,1.08
		l0.74-0.74L6.2,6.91C6.01,6.72,6.01,6.4,6.2,6.2c0.2-0.19,0.51-0.19,0.71,0l1.08,1.09l0.68-0.68L7.59,5.53
		c-0.2-0.2-0.2-0.521,0-0.71c0.19-0.2,0.51-0.2,0.7,0L9.37,5.9l1.12-1.12c0.19-0.2,0.51-0.2,0.71-0.01c0.19,0.2,0.19,0.52,0,0.71
		L10.08,6.6L11.12,7.65z M14.479,6.11c-0.79-1.19-2.33-3.17-4.62-4.65C10.9,1.17,11.98,1,13.09,1c0.2,0,0.41,0.01,0.61,0.02
		c0.72,0.03,1.29,0.62,1.3,1.32C15.01,3.64,14.83,4.91,14.479,6.11z"/>
</g>
</svg>
