<?xml version="1.0" encoding="utf-8"?>
<!-- Generator: Adobe Illustrator 16.0.2, SVG Export Plug-In . SVG Version: 6.00 Build 0)  -->
<!DOCTYPE svg PUBLIC "-//W3C//DTD SVG 1.1//EN" "http://www.w3.org/Graphics/SVG/1.1/DTD/svg11.dtd">
<svg version="1.1" id="Layer_1" xmlns="http://www.w3.org/2000/svg" xmlns:xlink="http://www.w3.org/1999/xlink" x="0px" y="0px"
	 width="16px" height="16px" viewBox="0 0 16 16" enable-background="new 0 0 16 16" xml:space="preserve">
<g id="Archery_1_">
	<g>
		<path d="M16,8c0,0,0,0,0,0.01c0,0.04-0.01,0.07-0.02,0.11C15.97,8.14,15.97,8.17,15.96,8.19V8.2c-0.01,0.02-0.03,0.05-0.05,0.07
			C15.89,8.3,15.88,8.33,15.85,8.36c-0.01,0.01-0.029,0.02-0.04,0.03c-0.01,0-0.01,0-0.01,0c-0.02,0.02-0.03,0.03-0.05,0.04
			c-0.02,0.01-0.04,0.02-0.06,0.03c0,0,0,0.01-0.011,0.01l-2.54,1c-0.06,0.02-0.12,0.03-0.18,0.03c-0.2,0-0.39-0.12-0.47-0.32
			C12.47,9.12,12.46,9.06,12.46,9V8.5H9.51c0.08,0.34,0.23,0.74,0.46,1.31c0.011,0.02,0,0.04,0.011,0.06C9.99,9.9,10,9.93,10,9.96
			c0,0.04,0,0.07-0.01,0.11c0,0.01,0.01,0.03,0,0.05c-0.5,2.11-1.49,3.93-3.11,5.72c-0.01,0-0.01,0-0.01,0
			c-0.04,0.04-0.09,0.07-0.14,0.1C6.72,15.95,6.71,15.96,6.7,15.96C6.64,15.99,6.58,16,6.51,16c-0.069,0-0.13-0.01-0.189-0.04
			c-0.03-0.01-0.051-0.03-0.08-0.04c-0.021-0.02-0.05-0.03-0.07-0.05c0,0,0,0-0.01-0.01c-0.03-0.03-0.05-0.06-0.07-0.1
			c-0.01-0.02-0.03-0.03-0.04-0.06c-0.01-0.02-0.01-0.05-0.02-0.08C6.02,15.58,6.01,15.55,6.01,15.51c0,0,0,0,0-0.01v-7H3.14
			L0.68,9.47C0.62,9.49,0.56,9.5,0.5,9.5c-0.2,0-0.39-0.12-0.46-0.32C0.01,9.12,0,9.06,0,9V6.97V6.96C0,6.9,0.01,6.83,0.04,6.77
			c0.1-0.26,0.4-0.38,0.65-0.27l2.45,1h2.87v-7V0.49c0-0.04,0.01-0.07,0.021-0.1C6.04,0.36,6.04,0.33,6.05,0.3
			c0.01-0.02,0.03-0.04,0.04-0.06C6.11,0.2,6.13,0.17,6.16,0.14c0.01,0,0.01-0.01,0.01-0.01C6.19,0.11,6.21,0.11,6.23,0.09
			C6.26,0.07,6.29,0.05,6.32,0.04C6.36,0.02,6.4,0.02,6.45,0.01C6.47,0.01,6.48,0,6.51,0c0,0,0,0,0.01,0c0.04,0,0.07,0.02,0.11,0.03
			c0.03,0,0.05,0,0.08,0.02C6.73,0.06,6.75,0.07,6.77,0.09C6.81,0.11,6.84,0.13,6.87,0.16c0,0,0,0,0.01,0.01
			c1.62,1.79,2.61,3.6,3.11,5.71c0.01,0.02,0,0.04,0,0.06C10,5.97,10,6,10,6.04c0,0.03-0.01,0.06-0.02,0.1
			c-0.011,0.01,0,0.03-0.011,0.05C9.74,6.76,9.59,7.16,9.51,7.5h2.95V6.97V6.96c0-0.06,0.01-0.13,0.04-0.19
			c0.1-0.26,0.4-0.38,0.65-0.27l2.54,1.04c0.01,0,0.01,0,0.01,0c0.02,0.01,0.03,0.03,0.05,0.04c0.04,0.02,0.07,0.04,0.1,0.07
			c0.011,0,0.011,0,0.011,0c0,0.01,0.01,0.02,0.01,0.03c0.02,0.01,0.03,0.03,0.04,0.04c0.01,0.03,0.04,0.06,0.05,0.09
			c0,0.01,0.01,0.01,0.01,0.01c0,0.01,0,0.03,0.011,0.05C15.99,7.91,16,7.95,16,8z M8.49,7.5c0.08-0.42,0.24-0.9,0.49-1.52
			C8.61,4.51,7.96,3.19,7.01,1.91V7.5H8.49z M8.98,10.02C8.73,9.4,8.57,8.92,8.49,8.5H7.01v5.6C7.96,12.82,8.61,11.49,8.98,10.02z"
			/>
	</g>
</g>
</svg>
