<?xml version="1.0" encoding="utf-8"?>
<!-- Generator: Adobe Illustrator 16.0.2, SVG Export Plug-In . SVG Version: 6.00 Build 0)  -->
<!DOCTYPE svg PUBLIC "-//W3C//DTD SVG 1.1//EN" "http://www.w3.org/Graphics/SVG/1.1/DTD/svg11.dtd">
<svg version="1.1" id="Layer_1" xmlns="http://www.w3.org/2000/svg" xmlns:xlink="http://www.w3.org/1999/xlink" x="0px" y="0px"
	 width="16px" height="16px" viewBox="0 0 16 16" enable-background="new 0 0 16 16" xml:space="preserve">
<g id="Barbell_1_">
	<path d="M13,3c0-0.276-0.224-0.5-0.5-0.5S12,2.724,12,3v3.75H4V3c0-0.276-0.224-0.5-0.5-0.5S3,2.724,3,3v10
		c0,0.276,0.224,0.5,0.5,0.5S4,13.276,4,13l0-3.75h8V13c0,0.276,0.224,0.5,0.5,0.5S13,13.276,13,13V8.001V8v0V3z"/>
	<path d="M2,4.5C1.724,4.5,1.5,4.724,1.5,5v6c0,0.276,0.224,0.5,0.5,0.5s0.5-0.224,0.5-0.5V5C2.5,4.724,2.276,4.5,2,4.5z"/>
	<path d="M0.5,6.5C0.224,6.5,0,6.724,0,7v2c0,0.276,0.224,0.5,0.5,0.5S1,9.276,1,9V7C1,6.724,0.776,6.5,0.5,6.5z"/>
	<path d="M14,4.5c-0.276,0-0.5,0.224-0.5,0.5v6c0,0.276,0.224,0.5,0.5,0.5s0.5-0.224,0.5-0.5V5C14.5,4.724,14.276,4.5,14,4.5z"/>
	<path d="M15.5,6.5C15.224,6.5,15,6.724,15,7v2c0,0.276,0.224,0.5,0.5,0.5S16,9.276,16,9V7C16,6.724,15.776,6.5,15.5,6.5z"/>
</g>
</svg>
