<?xml version="1.0" encoding="utf-8"?>
<!-- Generator: Adobe Illustrator 16.0.2, SVG Export Plug-In . SVG Version: 6.00 Build 0)  -->
<!DOCTYPE svg PUBLIC "-//W3C//DTD SVG 1.1//EN" "http://www.w3.org/Graphics/SVG/1.1/DTD/svg11.dtd">
<svg version="1.1" id="Layer_1" xmlns="http://www.w3.org/2000/svg" xmlns:xlink="http://www.w3.org/1999/xlink" x="0px" y="0px"
	 width="16px" height="16px" viewBox="0 0 16 16" enable-background="new 0 0 16 16" xml:space="preserve">
<g id="Baseball">
	<path d="M3.481,11.13l-1.89,2.15l-0.229-0.24c-0.155-0.155-0.357-0.232-0.562-0.232c-0.203,0-0.408,0.077-0.568,0.232
		c-0.31,0.32-0.31,0.82,0,1.13l1.6,1.6C1.992,15.92,2.191,16,2.392,16c0.21,0,0.41-0.08,0.569-0.23c0.311-0.31,0.311-0.82,0-1.13
		l-0.229-0.23L4.9,12.5L3.481,11.13z"/>
	<path d="M14.111,0.004c-0.519,0-1.033,0.211-1.404,0.625l-8.566,9.75l1.52,1.46l9.706-8.55c0.05-0.04,0.109-0.1,0.159-0.15
		c0.689-0.78,0.62-1.97-0.159-2.66C15.005,0.161,14.557,0.004,14.111,0.004z"/>
	<path d="M2.002,4L2.002,4c1.104,0,2-0.895,2-1.999C4.003,0.896,3.108,0,2.004,0H2.003C0.899,0,0.005,0.895,0.004,1.999
		C0.004,3.104,0.898,4,2.002,4z"/>
</g>
</svg>
