<?xml version="1.0" encoding="utf-8"?>
<!-- Generator: Adobe Illustrator 16.0.2, SVG Export Plug-In . SVG Version: 6.00 Build 0)  -->
<!DOCTYPE svg PUBLIC "-//W3C//DTD SVG 1.1//EN" "http://www.w3.org/Graphics/SVG/1.1/DTD/svg11.dtd">
<svg version="1.1" id="Layer_1" xmlns="http://www.w3.org/2000/svg" xmlns:xlink="http://www.w3.org/1999/xlink" x="0px" y="0px"
	 width="16px" height="16px" viewBox="0 0 16 16" enable-background="new 0 0 16 16" xml:space="preserve">
<g id="Basketball">
	<path d="M15.85,6.44c-0.61,0.1-1.1,0.33-1.5,0.67c-0.24,0.21-0.45,0.5-0.64,0.81c0.75,0.89,1.35,1.91,1.74,3
		C15.8,10.02,16,9.03,16,8C16,7.47,15.95,6.94,15.85,6.44z M12.21,1.2c-0.07,1.63-0.32,3.22-0.73,4.72
		c0.55,0.37,1.06,0.79,1.52,1.24c0.21-0.3,0.44-0.58,0.7-0.8c0.52-0.45,1.14-0.75,1.89-0.88C15,3.69,13.79,2.17,12.21,1.2z
		 M13.24,8.92c-0.51,1.39-0.76,3.33-0.89,5.79c0.99-0.63,1.82-1.48,2.44-2.48C14.52,11.02,13.98,9.91,13.24,8.92z M11.15,6.91
		c-0.76,2.29-1.9,4.37-3.41,6.05c-0.9,0.99-1.88,1.8-2.91,2.39C5.8,15.77,6.88,16,8,16c1.19,0,2.32-0.26,3.33-0.72
		c0.13-3.18,0.44-5.57,1.17-7.21C12.09,7.64,11.64,7.26,11.15,6.91z M8,0C6.94,0,5.93,0.21,5,0.59c2.2,0.77,3.54,2.2,3.55,3.92
		c0,0.01,0,0.01,0,0.01c0.71,0.23,1.39,0.52,2.03,0.86c0.39-1.5,0.61-3.08,0.65-4.7C10.24,0.24,9.15,0,8,0z M8.38,5.52
		c-0.59,1.85-2.93,3.86-7.96,5.02C1,12.31,2.2,13.8,3.75,14.77C4.9,14.23,6,13.39,7,12.29c1.47-1.63,2.56-3.67,3.28-5.93
		C9.69,6.02,9.05,5.74,8.38,5.52z M3.71,1.25C2.37,2.1,1.3,3.34,0.66,4.81C2,4.28,3.47,3.98,5.02,3.98c0.86,0,1.69,0.1,2.49,0.27
		C7.33,2.9,5.88,1.76,3.71,1.25z M5.02,4.98c-1.74,0-3.37,0.41-4.79,1.12C0.08,6.71,0,7.34,0,8c0,0.54,0.05,1.06,0.15,1.57
		C4.8,8.52,6.92,6.76,7.42,5.26C6.65,5.08,5.85,4.98,5.02,4.98z"/>
</g>
</svg>
