<?xml version="1.0" encoding="utf-8"?>
<!-- Generator: Adobe Illustrator 16.0.2, SVG Export Plug-In . SVG Version: 6.00 Build 0)  -->
<!DOCTYPE svg PUBLIC "-//W3C//DTD SVG 1.1//EN" "http://www.w3.org/Graphics/SVG/1.1/DTD/svg11.dtd">
<svg version="1.1" id="Layer_1" xmlns="http://www.w3.org/2000/svg" xmlns:xlink="http://www.w3.org/1999/xlink" x="0px" y="0px"
	 width="16px" height="16px" viewBox="0 0 16 16" enable-background="new 0 0 16 16" xml:space="preserve">
<g id="Bike_1_">
	<path d="M12.8,6.142c-0.409,0-0.797,0.084-1.156,0.224L10.732,4.8c0.371-0.055,0.722-0.222,0.988-0.489
		c0.194-0.196,0.194-0.513-0.002-0.708c-0.195-0.194-0.512-0.194-0.707,0.001c-0.14,0.14-0.333,0.221-0.53,0.221H9.499
		c-0.276,0-0.5,0.224-0.5,0.5c0,0.261,0.202,0.468,0.456,0.491H6.079c0.255-0.023,0.456-0.23,0.456-0.491c0-0.276-0.224-0.5-0.5-0.5
		h-1c-0.011,0-0.021,0.005-0.031,0.006C4.972,3.834,4.94,3.843,4.907,3.852S4.843,3.869,4.813,3.884
		c-0.01,0.005-0.021,0.005-0.03,0.01C4.764,3.905,4.753,3.922,4.736,3.936C4.709,3.956,4.684,3.977,4.661,4.002
		C4.64,4.027,4.623,4.054,4.607,4.082c-0.016,0.027-0.029,0.053-0.04,0.083C4.556,4.199,4.551,4.232,4.547,4.268
		c-0.003,0.02-0.012,0.037-0.012,0.058c0,0.011,0.005,0.02,0.006,0.03c0.002,0.034,0.011,0.066,0.021,0.1
		C4.57,4.488,4.578,4.519,4.594,4.548c0.004,0.01,0.004,0.021,0.01,0.03l0.431,0.737L4.398,6.378C4.027,6.229,3.624,6.142,3.2,6.142
		c-1.769,0-3.2,1.433-3.2,3.2s1.432,3.2,3.2,3.2c1.591,0,2.899-1.163,3.147-2.684h1.684c0.089,0,0.174-0.024,0.249-0.067
		c0.023-0.014,0.037-0.04,0.059-0.058C8.383,9.697,8.431,9.665,8.46,9.614l0.006-0.01l0,0l0,0l1.979-3.312l0.339,0.582
		C10.067,7.461,9.6,8.342,9.6,9.342c0,1.768,1.433,3.2,3.2,3.2s3.2-1.432,3.2-3.2S14.567,6.142,12.8,6.142z M3.2,11.542
		c-1.214,0-2.2-0.987-2.2-2.2c0-1.213,0.986-2.2,2.2-2.2c0.235,0,0.459,0.047,0.673,0.117L2.771,9.102
		C2.678,9.256,2.676,9.448,2.765,9.604C2.854,9.761,3.02,9.858,3.199,9.858h2.133C5.099,10.821,4.234,11.542,3.2,11.542z
		 M5.342,8.858H4.081l0.651-1.089C5.032,8.061,5.247,8.436,5.342,8.858z M6.351,8.858C6.231,8.074,5.83,7.391,5.25,6.903
		l0.365-0.612l1.534,2.566H6.351z M8.031,8.383L6.497,5.817h3.068L8.031,8.383z M12.8,11.542c-1.213,0-2.2-0.987-2.2-2.2
		c0-0.629,0.269-1.193,0.693-1.595l1.075,1.846c0.093,0.16,0.26,0.249,0.432,0.249c0.086,0,0.173-0.022,0.252-0.068
		c0.238-0.139,0.319-0.445,0.18-0.684l-1.073-1.842c0.204-0.063,0.417-0.106,0.642-0.106c1.213,0,2.2,0.987,2.2,2.2
		C15,10.555,14.013,11.542,12.8,11.542z"/>
</g>
</svg>
