<?xml version="1.0" encoding="utf-8"?>
<!-- Generator: Adobe Illustrator 16.0.2, SVG Export Plug-In . SVG Version: 6.00 Build 0)  -->
<!DOCTYPE svg PUBLIC "-//W3C//DTD SVG 1.1//EN" "http://www.w3.org/Graphics/SVG/1.1/DTD/svg11.dtd">
<svg version="1.1" id="Layer_1" xmlns="http://www.w3.org/2000/svg" xmlns:xlink="http://www.w3.org/1999/xlink" x="0px" y="0px"
	 width="16px" height="16px" viewBox="0 0 16 16" enable-background="new 0 0 16 16" xml:space="preserve">
<g id="Billiards_2_">
	<g id="Billiards_1_">
		<path d="M9.8,6.7c0-0.99-0.81-1.79-1.8-1.79S6.2,5.71,6.2,6.7c0,0.51,0.22,0.97,0.56,1.3C6.42,8.33,6.2,8.79,6.2,9.3
			c0,0.99,0.81,1.79,1.8,1.79s1.8-0.8,1.8-1.79c0-0.51-0.22-0.97-0.56-1.3C9.58,7.67,9.8,7.21,9.8,6.7z M8,10.09
			c-0.44,0-0.8-0.35-0.8-0.79c0-0.44,0.36-0.8,0.8-0.8s0.8,0.36,0.8,0.8C8.8,9.74,8.44,10.09,8,10.09z M8,7.5
			c-0.44,0-0.8-0.36-0.8-0.8c0-0.44,0.36-0.79,0.8-0.79S8.8,6.26,8.8,6.7C8.8,7.14,8.44,7.5,8,7.5z M9.8,6.7
			c0-0.99-0.81-1.79-1.8-1.79S6.2,5.71,6.2,6.7c0,0.51,0.22,0.97,0.56,1.3C6.42,8.33,6.2,8.79,6.2,9.3c0,0.99,0.81,1.79,1.8,1.79
			s1.8-0.8,1.8-1.79c0-0.51-0.22-0.97-0.56-1.3C9.58,7.67,9.8,7.21,9.8,6.7z M8,10.09c-0.44,0-0.8-0.35-0.8-0.79
			c0-0.44,0.36-0.8,0.8-0.8s0.8,0.36,0.8,0.8C8.8,9.74,8.44,10.09,8,10.09z M8,7.5c-0.44,0-0.8-0.36-0.8-0.8
			c0-0.44,0.36-0.79,0.8-0.79S8.8,6.26,8.8,6.7C8.8,7.14,8.44,7.5,8,7.5z M8,0C3.58,0,0,3.58,0,8c0,4.41,3.58,8,8,8
			c2.21,0,4.21-0.9,5.66-2.34C15.1,12.21,16,10.21,16,8C16,3.59,12.42,0,8,0z M11.54,11.54C10.63,12.44,9.38,13,8,13
			c-2.76,0-5-2.24-5-5s2.24-5,5-5s5,2.24,5,5C13,9.38,12.44,10.63,11.54,11.54z M8,4.91c-0.99,0-1.8,0.8-1.8,1.79
			c0,0.51,0.22,0.97,0.56,1.3C6.42,8.33,6.2,8.79,6.2,9.3c0,0.99,0.81,1.79,1.8,1.79s1.8-0.8,1.8-1.79c0-0.51-0.22-0.97-0.56-1.3
			C9.58,7.67,9.8,7.21,9.8,6.7C9.8,5.71,8.99,4.91,8,4.91z M8,10.09c-0.44,0-0.8-0.35-0.8-0.79c0-0.44,0.36-0.8,0.8-0.8
			s0.8,0.36,0.8,0.8C8.8,9.74,8.44,10.09,8,10.09z M8,7.5c-0.44,0-0.8-0.36-0.8-0.8c0-0.44,0.36-0.79,0.8-0.79S8.8,6.26,8.8,6.7
			C8.8,7.14,8.44,7.5,8,7.5z M9.8,6.7c0-0.99-0.81-1.79-1.8-1.79S6.2,5.71,6.2,6.7c0,0.51,0.22,0.97,0.56,1.3
			C6.42,8.33,6.2,8.79,6.2,9.3c0,0.99,0.81,1.79,1.8,1.79s1.8-0.8,1.8-1.79c0-0.51-0.22-0.97-0.56-1.3C9.58,7.67,9.8,7.21,9.8,6.7z
			 M8,10.09c-0.44,0-0.8-0.35-0.8-0.79c0-0.44,0.36-0.8,0.8-0.8s0.8,0.36,0.8,0.8C8.8,9.74,8.44,10.09,8,10.09z M8,7.5
			c-0.44,0-0.8-0.36-0.8-0.8c0-0.44,0.36-0.79,0.8-0.79S8.8,6.26,8.8,6.7C8.8,7.14,8.44,7.5,8,7.5z M9.8,6.7
			c0-0.99-0.81-1.79-1.8-1.79S6.2,5.71,6.2,6.7c0,0.51,0.22,0.97,0.56,1.3C6.42,8.33,6.2,8.79,6.2,9.3c0,0.99,0.81,1.79,1.8,1.79
			s1.8-0.8,1.8-1.79c0-0.51-0.22-0.97-0.56-1.3C9.58,7.67,9.8,7.21,9.8,6.7z M8,10.09c-0.44,0-0.8-0.35-0.8-0.79
			c0-0.44,0.36-0.8,0.8-0.8s0.8,0.36,0.8,0.8C8.8,9.74,8.44,10.09,8,10.09z M8,7.5c-0.44,0-0.8-0.36-0.8-0.8
			c0-0.44,0.36-0.79,0.8-0.79S8.8,6.26,8.8,6.7C8.8,7.14,8.44,7.5,8,7.5z"/>
	</g>
</g>
</svg>
