<?xml version="1.0" encoding="utf-8"?>
<!-- Generator: Adobe Illustrator 16.0.2, SVG Export Plug-In . SVG Version: 6.00 Build 0)  -->
<!DOCTYPE svg PUBLIC "-//W3C//DTD SVG 1.1//EN" "http://www.w3.org/Graphics/SVG/1.1/DTD/svg11.dtd">
<svg version="1.1" id="Layer_1" xmlns="http://www.w3.org/2000/svg" xmlns:xlink="http://www.w3.org/1999/xlink" x="0px" y="0px"
	 width="16px" height="16px" viewBox="0 0 16 16" enable-background="new 0 0 16 16" xml:space="preserve">
<g id="Bowling_2_">
	<path id="Bowling_1_" d="M8,0C3.59,0,0,3.58,0,8c0,4.41,3.58,8,8,8s8-3.58,8-8C16,3.59,12.42,0,8,0z M11.66,8.74c0,0.55-0.45,1-1,1
		c-0.55,0-1-0.45-1-1c0-0.55,0.45-1,1-1C11.21,7.74,11.66,8.19,11.66,8.74z M11.5,5.5c-0.55,0-1-0.44-1-1c0-0.55,0.45-1,1-1
		c0.56,0,1,0.45,1,1C12.5,5.06,12.05,5.5,11.5,5.5z M7.5,4.92c0.56,0,1,0.45,1,1c0,0.55-0.45,1-1,1s-1-0.45-1-1
		C6.5,5.37,6.95,4.92,7.5,4.92z"/>
</g>
</svg>
