<?xml version="1.0" encoding="utf-8"?>
<!-- Generator: Adobe Illustrator 16.0.2, SVG Export Plug-In . SVG Version: 6.00 Build 0)  -->
<!DOCTYPE svg PUBLIC "-//W3C//DTD SVG 1.1//EN" "http://www.w3.org/Graphics/SVG/1.1/DTD/svg11.dtd">
<svg version="1.1" id="Layer_1" xmlns="http://www.w3.org/2000/svg" xmlns:xlink="http://www.w3.org/1999/xlink" x="0px" y="0px"
	 width="16px" height="16px" viewBox="0 0 16 16" enable-background="new 0 0 16 16" xml:space="preserve">
<g id="Boxing">
	<path d="M14.257,4.605c-0.1-0.29-0.229-0.53-0.379-0.73c-0.05-0.08-0.12-0.14-0.18-0.2c-0.24-0.22-0.5-0.34-0.829-0.37
		c-0.579-0.06-1.538,0.26-1.737,1.089c-0.12,0.48,0,1.169,0.659,1.679c0.21,0.17,0.25,0.48,0.09,0.7
		c-0.169,0.22-0.489,0.26-0.709,0.09c-0.12-0.09-0.229-0.19-0.33-0.3c-0.968,0.41-1.947,0.61-2.896,0.61
		c-0.929,0-1.807-0.2-2.586-0.6C5.27,6.524,5.19,6.464,5.1,6.414c-0.25,0.08-0.52,0.13-0.799,0.13c-0.36,0-0.709-0.06-0.969-0.19
		c-0.25-0.12-0.36-0.419-0.24-0.669c0.12-0.25,0.419-0.35,0.669-0.23c0.08,0.03,0.19,0.06,0.31,0.07
		c-0.209-0.27-0.369-0.55-0.419-0.839c-0.06-0.27,0.12-0.53,0.39-0.59c0.26-0.05,0.529,0.12,0.589,0.39
		c0.06,0.33,0.459,0.82,1.188,1.2c0.609,0.31,2.217,0.909,4.474,0.03c-0.21-0.49-0.26-1.02-0.13-1.549
		C10.502,2.746,12,2.226,12.959,2.306c0.07,0.01,0.13,0.01,0.19,0.03c-0.22-0.53-0.639-1.01-1.238-1.409
		c-1.229-0.83-2.796-1.08-5.253-0.84c-1.837,0.18-3.085,0.76-4.054,1.869c-1.638,1.879-1.608,6.047,1.148,9.916h8.498
		c0.659-0.95,1.278-2.079,1.688-3.139C14.557,7.094,14.667,5.745,14.257,4.605z M3.512,13v2c0,0.55,0.449,1,0.999,1h6.98
		c0.559,0,1.008-0.45,1.008-1v-2H3.512z"/>
</g>
</svg>
