<?xml version="1.0" encoding="utf-8"?>
<!-- Generator: Adobe Illustrator 16.0.2, SVG Export Plug-In . SVG Version: 6.00 Build 0)  -->
<!DOCTYPE svg PUBLIC "-//W3C//DTD SVG 1.1//EN" "http://www.w3.org/Graphics/SVG/1.1/DTD/svg11.dtd">
<svg version="1.1" id="Layer_1" xmlns="http://www.w3.org/2000/svg" xmlns:xlink="http://www.w3.org/1999/xlink" x="0px" y="0px"
	 width="16px" height="16px" viewBox="0 0 16 16" enable-background="new 0 0 16 16" xml:space="preserve">
<g id="Car">
	<path d="M15.84,8.255c-0.04-0.03-0.98-0.89-2.69-1.43c-0.95-0.3-2.15-0.41-2.51-0.44l-2.31-1.15c-0.14-0.07-0.29-0.11-0.45-0.11
		H4.12c-0.15,0-0.31,0.04-0.45,0.11l-2.23,1.11l-0.82-0.21c-0.14-0.04-0.3,0-0.43,0.09C0.07,6.325,0,6.465,0,6.625v3.25
		c0,0.18,0.11,0.36,0.27,0.44l0.5,0.26c0.07,0.03,0.15,0.05,0.23,0.05h0.77c-0.18-0.29-0.27-0.63-0.27-1c0-1.1,0.9-2,2-2
		c1.11,0,2,0.9,2,2c0,0.37-0.09,0.71-0.26,1h4.53c-0.17-0.29-0.27-0.64-0.27-1c0-1.1,0.9-2,2-2s2,0.9,2,2c0,0.36-0.1,0.71-0.27,1
		h2.27c0.28,0,0.5-0.22,0.5-0.5v-1.5C16,8.485,15.94,8.355,15.84,8.255z"/>
	<path d="M3.5,8.375c-0.69,0-1.25,0.56-1.25,1.25c0,0.41,0.2,0.78,0.51,1c0.21,0.16,0.46,0.25,0.74,0.25s0.54-0.09,0.75-0.25
		c0.3-0.23,0.5-0.59,0.5-1C4.75,8.935,4.19,8.375,3.5,8.375z"/>
	<path d="M11.5,8.375c-0.69,0-1.25,0.56-1.25,1.25c0,0.41,0.2,0.78,0.51,1c0.21,0.16,0.46,0.25,0.74,0.25s0.54-0.09,0.75-0.25
		c0.3-0.23,0.5-0.59,0.5-1C12.75,8.935,12.19,8.375,11.5,8.375z"/>
</g>
</svg>
