<?xml version="1.0" encoding="utf-8"?>
<!-- Generator: Adobe Illustrator 16.0.2, SVG Export Plug-In . SVG Version: 6.00 Build 0)  -->
<!DOCTYPE svg PUBLIC "-//W3C//DTD SVG 1.1//EN" "http://www.w3.org/Graphics/SVG/1.1/DTD/svg11.dtd">
<svg version="1.1" id="Layer_1" xmlns="http://www.w3.org/2000/svg" xmlns:xlink="http://www.w3.org/1999/xlink" x="0px" y="0px"
	 width="16px" height="16px" viewBox="0 0 16 16" enable-background="new 0 0 16 16" xml:space="preserve">
<g>
	<path d="M12.168,12.479c0.626-0.803,1.939-2.822,1.826-5.5c-0.159-3.746-3.359-5.074-4.039-5.314L8.334,0.136
		c-0.15-0.142-0.373-0.176-0.56-0.087c-0.187,0.09-0.299,0.285-0.282,0.492l0.093,1.125L6.604,1.995
		C6.522,2.022,6.449,2.07,6.392,2.134l-0.542,0.6L4.325,3.593L2.558,4.431c-0.125,0.059-0.221,0.168-0.263,0.3L2.024,5.583
		C2.006,5.64,1.998,5.7,2.001,5.759c0.015,0.288,0.262,1.177,1.181,1.48c0.834,0.276,1.35-0.101,1.658-0.326
		c0.093-0.068,0.189-0.139,0.251-0.158c0.289-0.093,0.614,0.074,0.96,0.25C6.308,7.135,6.55,7.259,6.813,7.291
		C6.976,7.31,7.126,7.314,7.274,7.316c-0.269,0.246-0.606,0.462-0.962,0.69c-0.645,0.413-1.375,0.88-1.964,1.682
		c-0.739,1.006-0.569,2.129-0.418,2.675l-0.778,0.784c-0.143,0.144-0.185,0.358-0.107,0.544C3.122,13.878,3.305,14,3.507,14h8.987
		c0.203,0,0.386-0.123,0.463-0.311c0.076-0.188,0.032-0.404-0.112-0.546L12.168,12.479z"/>
	<path d="M12.471,15H3.507c-0.276,0-0.5,0.224-0.5,0.5S3.23,16,3.507,16h8.964c0.276,0,0.5-0.224,0.5-0.5S12.747,15,12.471,15z"/>
</g>
</svg>
