<?xml version="1.0" encoding="utf-8"?>
<!-- Generator: Adobe Illustrator 16.0.2, SVG Export Plug-In . SVG Version: 6.00 Build 0)  -->
<!DOCTYPE svg PUBLIC "-//W3C//DTD SVG 1.1//EN" "http://www.w3.org/Graphics/SVG/1.1/DTD/svg11.dtd">
<svg version="1.1" id="Layer_1" xmlns="http://www.w3.org/2000/svg" xmlns:xlink="http://www.w3.org/1999/xlink" x="0px" y="0px"
	 width="15.999px" height="16px" viewBox="0 0 15.999 16" enable-background="new 0 0 15.999 16" xml:space="preserve">
<g id="Cricket">
	<path d="M15.729,2.481l-2.21-2.209c-0.182-0.181-0.425-0.27-0.682-0.27c-0.319,0-0.658,0.137-0.924,0.402L3.226,9.091
		c-0.479,0.479-0.539,1.199-0.132,1.605l0.368,0.368L0.166,14.36c-0.222,0.222-0.222,0.582,0,0.804l0.67,0.669
		C0.947,15.945,1.092,16,1.237,16s0.291-0.055,0.402-0.167l3.296-3.295l0.368,0.368c0.182,0.182,0.425,0.27,0.682,0.27
		c0.319,0,0.658-0.137,0.924-0.402l8.688-8.688C16.077,3.607,16.136,2.888,15.729,2.481z"/>
	<path d="M1.999,4C2,4,2,4,1.999,4C3.104,4,4,3.105,4,2.001C4.001,0.896,3.105,0,2.001,0c0,0,0,0-0.001,0
		C0.896,0,0.001,0.895,0,1.999C0,3.104,0.896,4,1.999,4z"/>
</g>
</svg>
