<?xml version="1.0" encoding="utf-8"?>
<!-- Generator: Adobe Illustrator 16.0.2, SVG Export Plug-In . SVG Version: 6.00 Build 0)  -->
<!DOCTYPE svg PUBLIC "-//W3C//DTD SVG 1.1//EN" "http://www.w3.org/Graphics/SVG/1.1/DTD/svg11.dtd">
<svg version="1.1" id="Layer_1" xmlns="http://www.w3.org/2000/svg" xmlns:xlink="http://www.w3.org/1999/xlink" x="0px" y="0px"
	 width="16px" height="16px" viewBox="0 0 16 16" enable-background="new 0 0 16 16" xml:space="preserve">
<g id="Darts_1_">
	<path d="M15.977,2.327c-0.006-0.024-0.008-0.049-0.018-0.072c-0.047-0.117-0.136-0.208-0.256-0.258
		c-0.006-0.003-0.011-0.008-0.017-0.011c-0.02-0.007-0.042-0.007-0.063-0.012c-0.046-0.012-0.091-0.022-0.138-0.021
		c-0.004,0-0.008-0.002-0.013-0.002l-1.51,0.087l0.087-1.51c0-0.005-0.002-0.009-0.002-0.014c0.001-0.037-0.008-0.072-0.015-0.108
		c-0.005-0.029-0.006-0.058-0.017-0.085c-0.009-0.024-0.027-0.045-0.04-0.068c-0.02-0.034-0.037-0.068-0.064-0.096
		c-0.003-0.004-0.004-0.008-0.008-0.012c-0.017-0.017-0.039-0.024-0.058-0.038c-0.03-0.023-0.058-0.046-0.092-0.062
		c-0.034-0.015-0.068-0.021-0.104-0.027C13.626,0.014,13.605,0.001,13.58,0c-0.005,0-0.01,0.002-0.015,0.002
		c-0.029-0.001-0.056,0.006-0.084,0.011c-0.111,0.014-0.209,0.057-0.283,0.132c0,0-0.001,0-0.001,0.001l-2.104,2.104
		c-0.001,0.001-0.002,0.002-0.003,0.003l-0.016,0.016c-0.014,0.014-0.019,0.032-0.031,0.046c-0.027,0.034-0.053,0.066-0.07,0.106
		c-0.014,0.032-0.019,0.066-0.026,0.1c-0.005,0.025-0.017,0.047-0.019,0.073l-0.108,1.88l-0.089,0.089
		C9.594,3.586,8.119,2.993,6.503,2.993C2.911,2.993,0,5.905,0,9.497S2.911,16,6.503,16c3.591,0,6.502-2.912,6.502-6.503
		c0-1.615-0.592-3.09-1.567-4.227l0.089-0.089l1.879-0.108c0.024-0.001,0.044-0.013,0.068-0.018
		c0.037-0.007,0.072-0.013,0.107-0.028c0.034-0.015,0.061-0.038,0.089-0.06c0.02-0.015,0.043-0.022,0.061-0.041l2.122-2.122
		c0.003-0.003,0.004-0.008,0.008-0.012c0.025-0.027,0.042-0.06,0.061-0.091c0.015-0.025,0.034-0.047,0.043-0.074
		c0.01-0.025,0.01-0.052,0.016-0.079c0.007-0.038,0.017-0.075,0.016-0.113C15.998,2.431,16,2.427,16,2.422
		C15.998,2.388,15.984,2.359,15.977,2.327z M11.005,9.497c0,2.491-2.011,4.502-4.502,4.502c-2.481,0-4.502-2.011-4.502-4.502
		c0-2.481,2.021-4.502,4.502-4.502c1.064,0,2.027,0.384,2.796,1L8.591,6.703C8.006,6.264,7.288,5.995,6.503,5.995
		c-1.931,0-3.501,1.571-3.501,3.502s1.57,3.502,3.501,3.502c1.931,0,3.501-1.571,3.501-3.502c0-0.785-0.269-1.502-0.706-2.086
		l0.708-0.708C10.622,7.472,11.005,8.436,11.005,9.497z M8.434,9.497c0,1.071-0.871,1.931-1.931,1.931
		c-1.071,0-1.931-0.86-1.931-1.931c0-1.061,0.86-1.931,1.931-1.931c0.35,0,0.674,0.102,0.958,0.267L6.689,8.604
		C6.627,8.591,6.569,8.566,6.503,8.566c-0.51,0-0.931,0.42-0.931,0.93s0.42,0.931,0.931,0.931s0.93-0.42,0.93-0.931
		c0-0.065-0.024-0.122-0.038-0.184l0.772-0.772C8.332,8.824,8.434,9.148,8.434,9.497z M11.916,2.841l1.059-1.059l-0.033,0.569
		L11.883,3.41L11.916,2.841z M13.16,4.084l-0.569,0.033l1.059-1.059l0.569-0.033L13.16,4.084z"/>
</g>
</svg>
