<?xml version="1.0" encoding="utf-8"?>
<!-- Generator: Adobe Illustrator 16.0.2, SVG Export Plug-In . SVG Version: 6.00 Build 0)  -->
<!DOCTYPE svg PUBLIC "-//W3C//DTD SVG 1.1//EN" "http://www.w3.org/Graphics/SVG/1.1/DTD/svg11.dtd">
<svg version="1.1" id="Layer_1" xmlns="http://www.w3.org/2000/svg" xmlns:xlink="http://www.w3.org/1999/xlink" x="0px" y="0px"
	 width="16px" height="16px" viewBox="0 0 16 16" enable-background="new 0 0 16 16" xml:space="preserve">
<g id="Finish_1_">
	<rect x="8" y="3" width="3.999" height="2"/>
	<path d="M15.5,0H15h-3H8H4H0.5C0.224,0,0,0.224,0,0.5v0.001v0.001V15.5C0,15.776,0.224,16,0.5,16S1,15.776,1,15.5V7.999h14.5
		c0.276,0,0.5-0.224,0.5-0.5V0.5C16,0.224,15.776,0,15.5,0z M8,7V5H4L4,7H1V5h3V3H1V1H4L4,3h4V1H12v2H15v2H12v2H8z"/>
</g>
</svg>
