<?xml version="1.0" encoding="utf-8"?>
<!-- Generator: Adobe Illustrator 16.0.2, SVG Export Plug-In . SVG Version: 6.00 Build 0)  -->
<!DOCTYPE svg PUBLIC "-//W3C//DTD SVG 1.1//EN" "http://www.w3.org/Graphics/SVG/1.1/DTD/svg11.dtd">
<svg version="1.1" id="Layer_1" xmlns="http://www.w3.org/2000/svg" xmlns:xlink="http://www.w3.org/1999/xlink" x="0px" y="0px"
	 width="16px" height="16px" viewBox="0 0 16 16" enable-background="new 0 0 16 16" xml:space="preserve">
<g id="Football">
	<g>
		<path d="M15.581,5.37C17.351,10.91,13.271,16,8,16H7.99c-3.411,0-6.531-2.13-7.571-5.37C-1.351,5.09,2.729,0,8,0h0.01
			C11.42,0,14.55,2.13,15.581,5.37z M14.94,8.85c0.02-0.18-0.06-0.36-0.2-0.46l-1.69-1.27c-0.13-0.1-0.3-0.13-0.46-0.08L11.5,7.39
			c-0.15,0.05-0.27,0.17-0.32,0.32L10.4,10.1c-0.05,0.15-0.02,0.32,0.07,0.45l0.68,0.93c0.09,0.13,0.25,0.21,0.41,0.21l2.11-0.04
			c0.18,0,0.35-0.09,0.44-0.25C14.541,10.62,14.831,9.76,14.94,8.85z M13.23,3.74c0.06-0.17,0.02-0.37-0.1-0.5
			c-0.61-0.66-1.34-1.19-2.16-1.58c-0.17-0.08-0.36-0.06-0.51,0.05L8.72,2.93C8.59,3.02,8.51,3.18,8.51,3.34V4.5
			c0,0.16,0.08,0.31,0.21,0.4l2.02,1.47c0.13,0.09,0.3,0.12,0.45,0.07l1.09-0.35c0.16-0.05,0.28-0.17,0.33-0.33L13.23,3.74z
			 M10.41,12.52c0.05-0.15,0.02-0.32-0.07-0.45l-0.67-0.93c-0.09-0.13-0.25-0.21-0.41-0.21H6.75c-0.16,0-0.31,0.08-0.4,0.21
			l-0.68,0.93c-0.09,0.13-0.12,0.3-0.07,0.45l0.69,2.02c0.05,0.17,0.2,0.3,0.37,0.33C7.09,14.95,7.54,15,7.99,15
			c0.47,0,0.92-0.05,1.36-0.14c0.17-0.03,0.32-0.16,0.37-0.33L10.41,12.52z M7.51,4.5V3.34c0-0.16-0.08-0.32-0.21-0.41L5.55,1.71
			C5.4,1.6,5.21,1.58,5.04,1.66C4.22,2.05,3.49,2.59,2.879,3.24c-0.12,0.14-0.16,0.32-0.11,0.5l0.62,2.01
			c0.05,0.16,0.17,0.28,0.33,0.33l1.11,0.36c0.15,0.05,0.32,0.02,0.45-0.07L7.3,4.9C7.43,4.81,7.51,4.66,7.51,4.5z M5.54,10.55
			c0.09-0.13,0.12-0.3,0.07-0.45L4.84,7.71C4.79,7.56,4.67,7.44,4.52,7.39L3.41,7.03C3.25,6.98,3.08,7.01,2.95,7.11l-1.69,1.27
			c-0.14,0.1-0.22,0.28-0.2,0.46c0.1,0.9,0.39,1.77,0.82,2.56c0.09,0.15,0.26,0.25,0.44,0.25l2.13,0.04c0.16,0,0.32-0.08,0.41-0.21
			L5.54,10.55z"/>
	</g>
</g>
</svg>
