<?xml version="1.0" encoding="utf-8"?>
<!-- Generator: Adobe Illustrator 16.0.2, SVG Export Plug-In . SVG Version: 6.00 Build 0)  -->
<!DOCTYPE svg PUBLIC "-//W3C//DTD SVG 1.1//EN" "http://www.w3.org/Graphics/SVG/1.1/DTD/svg11.dtd">
<svg version="1.1" id="Layer_1" xmlns="http://www.w3.org/2000/svg" xmlns:xlink="http://www.w3.org/1999/xlink" x="0px" y="0px"
	 width="16px" height="16px" viewBox="0 0 16 16" enable-background="new 0 0 16 16" xml:space="preserve">
<g id="Golf">
	<g>
		<g>
			<path d="M8,0C4.69,0,2,2.68,2,6c0,3.31,2.68,6,6,6c1.66,0,3.16-0.67,4.24-1.76C13.33,9.16,14,7.66,14,6C14,2.69,11.32,0,8,0z
				 M8.21,5.74c-0.27,0-0.49-0.22-0.49-0.49s0.22-0.49,0.49-0.49S8.7,4.98,8.7,5.25S8.48,5.74,8.21,5.74z M8.21,4.44
				c-0.27,0-0.49-0.22-0.49-0.5c0-0.27,0.22-0.49,0.49-0.49S8.7,3.67,8.7,3.94C8.7,4.22,8.48,4.44,8.21,4.44z M9.52,6.4
				c-0.27,0-0.49-0.22-0.49-0.49s0.22-0.49,0.49-0.49s0.49,0.22,0.49,0.49S9.79,6.4,9.52,6.4z M9.52,5.09
				c-0.27,0-0.49-0.22-0.49-0.49s0.22-0.49,0.49-0.49s0.49,0.22,0.49,0.49S9.79,5.09,9.52,5.09z M9.52,3.78
				c-0.27,0-0.49-0.22-0.49-0.49S9.25,2.8,9.52,2.8s0.49,0.22,0.49,0.49S9.79,3.78,9.52,3.78z M10.83,5.74
				c-0.27,0-0.49-0.22-0.49-0.49s0.22-0.49,0.49-0.49s0.49,0.22,0.49,0.49S11.1,5.74,10.83,5.74z M10.83,4.44
				c-0.27,0-0.49-0.22-0.49-0.5c0-0.27,0.22-0.49,0.49-0.49s0.49,0.22,0.49,0.49C11.32,4.22,11.1,4.44,10.83,4.44z"/>
		</g>
	</g>
	<g>
		<path d="M12.423,12.078c-0.147-0.234-0.458-0.303-0.689-0.155c-2.219,1.407-5.232,1.411-7.465,0.002
			c-0.231-0.146-0.541-0.078-0.689,0.156c-0.147,0.234-0.077,0.542,0.156,0.69c0.167,0.105,0.345,0.186,0.519,0.278
			c0.033,0.022,0.055,0.052,0.092,0.071c0.862,0.431,1.954,0.94,2.124,2.41C6.51,15.79,6.71,16,6.98,16H8l0,0h1.02
			c0.27,0,0.47-0.21,0.51-0.47c0.17-1.47,1.262-1.979,2.124-2.41c0.037-0.019,0.059-0.048,0.092-0.071
			c0.175-0.093,0.355-0.175,0.523-0.281C12.502,12.62,12.571,12.311,12.423,12.078z"/>
	</g>
</g>
</svg>
