<?xml version="1.0" encoding="utf-8"?>
<!-- Generator: Adobe Illustrator 16.0.2, SVG Export Plug-In . SVG Version: 6.00 Build 0)  -->
<!DOCTYPE svg PUBLIC "-//W3C//DTD SVG 1.1//EN" "http://www.w3.org/Graphics/SVG/1.1/DTD/svg11.dtd">
<svg version="1.1" id="Layer_1" xmlns="http://www.w3.org/2000/svg" xmlns:xlink="http://www.w3.org/1999/xlink" x="0px" y="0px"
	 width="16px" height="16px" viewBox="0 0 16 16" enable-background="new 0 0 16 16" xml:space="preserve">
<g id="Handball">
	<path d="M13.814,2.476l-1.955,1.745c0.572,0.682,1.444,1.875,1.995,3.278H16C15.88,5.554,15.068,3.799,13.814,2.476z M11.83,8.501
		c0.161,0.481,0.331,1.243,0.391,2.375l1.985,2.196C15.238,11.81,15.9,10.235,16,8.501H11.83z M11.75,11.85
		c-0.682,0.562-1.855,1.424-3.248,1.975V16c1.945-0.12,3.699-0.932,5.022-2.186L11.75,11.85z M8.501,0v4.141
		c0.481-0.161,1.253-0.341,2.396-0.401l2.186-1.945C11.819,0.762,10.236,0.101,8.501,0z M10.987,4.742
		c-1.474,0.07-2.235,0.361-2.486,0.471v2.286h4.26C12.221,6.286,11.449,5.283,10.987,4.742z M10.757,8.501H8.501v4.241
		c1.193-0.552,2.185-1.313,2.727-1.765C11.148,9.524,10.867,8.762,10.757,8.501z M5.083,12.261l-2.155,1.945
		C4.19,15.238,5.765,15.9,7.499,16v-4.15C7.028,12.02,6.246,12.201,5.083,12.261z M3.208,8.501c0.551,1.203,1.323,2.215,1.785,2.757
		c1.514-0.07,2.286-0.381,2.506-0.481V8.501H3.208z M4.752,5.033c0.07,1.443,0.351,2.206,0.471,2.466h2.275v-4.24
		C6.296,3.799,5.293,4.571,4.752,5.033z M2.486,2.175L4.241,4.15c0.671-0.562,1.854-1.434,3.258-1.985V0
		C5.564,0.12,3.81,0.922,2.486,2.175z M3.75,5.123L1.805,2.917C0.762,4.181,0.1,5.765,0,7.499h4.15
		C3.99,7.018,3.81,6.256,3.75,5.123z M2.115,8.501H0c0.12,1.945,0.932,3.699,2.186,5.022l1.935-1.745
		C3.549,11.098,2.677,9.915,2.115,8.501z"/>
</g>
</svg>
