<?xml version="1.0" encoding="utf-8"?>
<!-- Generator: Adobe Illustrator 16.0.2, SVG Export Plug-In . SVG Version: 6.00 Build 0)  -->
<!DOCTYPE svg PUBLIC "-//W3C//DTD SVG 1.1//EN" "http://www.w3.org/Graphics/SVG/1.1/DTD/svg11.dtd">
<svg version="1.1" id="Layer_1" xmlns="http://www.w3.org/2000/svg" xmlns:xlink="http://www.w3.org/1999/xlink" x="0px" y="0px"
	 width="16px" height="16px" viewBox="0 0 16 16" enable-background="new 0 0 16 16" xml:space="preserve">
<g id="Hockey_1_">
	<path d="M15,6c0-1.42-2.87-3-7-3C3.88,3,1,4.58,1,6s2.88,3,7,3C12.13,9,15,7.42,15,6z M8,2c4.49,0,8,1.76,8,4v4c0,2.24-3.51,4-8,4
		s-8-1.76-8-4V6C0,3.76,3.51,2,8,2z"/>
	<path d="M8,8C5.351,8,2.5,7.374,2.5,6S5.351,4,8,4s5.5,0.626,5.5,2S10.649,8,8,8z M8,5C5.074,5,3.575,5.73,3.499,6.007
		C3.575,6.27,5.074,7,8,7c2.899,0,4.397-0.717,4.498-1C12.397,5.717,10.899,5,8,5z"/>
</g>
</svg>
