<?xml version="1.0" encoding="utf-8"?>
<!-- Generator: Adobe Illustrator 16.0.2, SVG Export Plug-In . SVG Version: 6.00 Build 0)  -->
<!DOCTYPE svg PUBLIC "-//W3C//DTD SVG 1.1//EN" "http://www.w3.org/Graphics/SVG/1.1/DTD/svg11.dtd">
<svg version="1.1" id="Layer_1" xmlns="http://www.w3.org/2000/svg" xmlns:xlink="http://www.w3.org/1999/xlink" x="0px" y="0px"
	 width="16px" height="16px" viewBox="0 0 16 16" enable-background="new 0 0 16 16" xml:space="preserve">
<g id="Ice-skates_1_">
	<path d="M15.51,13.75H14.36c-0.221,0-0.4-0.14-0.471-0.34L13.66,12.5H14c0.55,0,1-0.45,1-1V11c0-3.9-5.92-2.92-6.52-5.46
		C8.23,4.49,8.11,2.69,8.05,1.43C8.01,0.63,7.35,0,6.55,0H2.5C1.67,0,1,0.67,1,1.5v10c0,0.55,0.45,1,1,1h0.35L2.11,13.41
		c-0.061,0.21-0.25,0.34-0.471,0.34H0.5c-0.28,0-0.5,0.22-0.5,0.5v0.35c0,0.51,0.38,0.93,0.89,0.99C2.23,15.73,4.42,16,8,16
		s5.77-0.27,7.12-0.41c0.5-0.06,0.88-0.48,0.88-0.99v-0.35C16,13.97,15.78,13.75,15.51,13.75z M7.72,6.5C7.72,6.78,7.5,7,7.22,7
		c-0.27,0-0.5-0.22-0.5-0.5S6.95,6,7.22,6C7.5,6,7.72,6.22,7.72,6.5z M7.28,4.51c0,0.27-0.221,0.5-0.5,0.5
		c-0.271,0-0.5-0.23-0.5-0.5c0-0.28,0.229-0.5,0.5-0.5C7.06,4.01,7.28,4.23,7.28,4.51z M6.6,1.99c0.28,0,0.5,0.22,0.5,0.5
		c0,0.27-0.22,0.5-0.5,0.5c-0.27,0-0.5-0.23-0.5-0.5C6.1,2.21,6.33,1.99,6.6,1.99z M11.11,13.664c-0.061,0.21-0.25,0.34-0.471,0.34
		H5.36c-0.221,0-0.4-0.13-0.471-0.34L4.65,12.5h6.699L11.11,13.664z"/>
</g>
</svg>
