<?xml version="1.0" encoding="utf-8"?>
<!-- Generator: Adobe Illustrator 16.0.2, SVG Export Plug-In . SVG Version: 6.00 Build 0)  -->
<!DOCTYPE svg PUBLIC "-//W3C//DTD SVG 1.1//EN" "http://www.w3.org/Graphics/SVG/1.1/DTD/svg11.dtd">
<svg version="1.1" id="Layer_1" xmlns="http://www.w3.org/2000/svg" xmlns:xlink="http://www.w3.org/1999/xlink" x="0px" y="0px"
	 width="16px" height="16px" viewBox="0 0 16 16" enable-background="new 0 0 16 16" xml:space="preserve">
<g id="Medal_1_">
	<path d="M8.007,10.506c-1.521,0-2.753,1.229-2.753,2.747C5.254,14.771,6.485,16,8.007,16c1.522,0,2.754-1.229,2.754-2.747
		C10.761,11.735,9.529,10.506,8.007,10.506z M7.459,13.51c-0.139,0-0.276-0.058-0.373-0.167c-0.18-0.209-0.16-0.529,0.051-0.709
		l0.681-0.589C7.912,11.963,8.03,11.92,8.15,11.92c0.07,0,0.141,0.015,0.207,0.044c0.181,0.08,0.291,0.26,0.291,0.45v1.648
		c0,0.28-0.221,0.5-0.501,0.5c-0.271,0-0.501-0.22-0.501-0.5v-0.589C7.587,13.498,7.523,13.51,7.459,13.51z"/>
	<path d="M4.293,2.517l7.428,0c0.145,0,0.281-0.062,0.377-0.17l1.331-1.519C13.712,0.505,13.481,0,13.052,0l0,0L2.965,0.003
		c-0.431,0-0.66,0.505-0.377,0.828l1.328,1.515C4.011,2.454,4.148,2.517,4.293,2.517z"/>
	<path d="M6.468,9.991l2.174,0c0.43,0,0.66-0.505,0.377-0.829L1.877,1.02C1.773,0.901,1.638,0.848,1.505,0.848
		C1.248,0.848,1,1.045,1,1.349v2.479c0,0.121,0.044,0.238,0.124,0.329L6.091,9.82C6.186,9.929,6.323,9.991,6.468,9.991z"/>
	<path d="M14.495,0.864c-0.133,0-0.269,0.053-0.372,0.171l-5.39,6.146c-0.165,0.188-0.165,0.469,0,0.658L9.82,9.079
		c0.1,0.114,0.238,0.17,0.376,0.17c0.139,0,0.277-0.057,0.377-0.17l4.303-4.907C14.956,4.081,15,3.964,15,3.843V1.365
		C15,1.061,14.752,0.864,14.495,0.864z"/>
</g>
</svg>
