<?xml version="1.0" encoding="utf-8"?>
<!-- Generator: Adobe Illustrator 16.0.2, SVG Export Plug-In . SVG Version: 6.00 Build 0)  -->
<!DOCTYPE svg PUBLIC "-//W3C//DTD SVG 1.1//EN" "http://www.w3.org/Graphics/SVG/1.1/DTD/svg11.dtd">
<svg version="1.1" id="Layer_1" xmlns="http://www.w3.org/2000/svg" xmlns:xlink="http://www.w3.org/1999/xlink" x="0px" y="0px"
	 width="16px" height="16px" viewBox="0 0 16 16" enable-background="new 0 0 16 16" xml:space="preserve">
<g id="Motorcycle">
	<g>
		<path d="M13.498,7.5c1.58,0,2.82,1.47,2.43,3.12c-0.21,0.88-0.93,1.6-1.81,1.81c-0.21,0.05-0.42,0.07-0.62,0.07
			c-1.579,0-2.819-1.47-2.419-3.12c0.12-0.51,0.43-0.96,0.829-1.29l-0.3-0.56c-0.729,0.54-1.189,1.43-1.18,2.47v1.04
			c0,0.28-0.22,0.5-0.5,0.5H6c-0.28,0-0.5-0.22-0.5-0.5V10c0-1.71-1.229-3.01-2.869-3.03C1.57,6.95,0.731,7.36,0.721,7.36
			c-0.25,0.12-0.55,0.02-0.67-0.23c-0.119-0.24-0.02-0.54,0.221-0.66C0.301,6.45,1.131,6.02,1.99,5.74c1.3-0.42,2.85-0.72,2.92-0.73
			c0.15-0.03,0.3,0.01,0.42,0.11c0.3,0.26,1.22,0.94,1.92,0.94c1.56,0,2.159-0.94,2.399-1.56h-0.36c-0.279,0-0.5-0.23-0.5-0.5
			c0-0.28,0.221-0.5,0.5-0.5h1c0.05,0,1.22,0,2.289,0.6c1.24,0.69,1.86,2.15,1.88,2.21c0.07,0.16,0.05,0.35-0.06,0.49
			c-0.11,0.15-0.3,0.22-0.47,0.2c-0.19-0.03-0.4-0.04-0.63-0.03c-0.28,0-0.54,0.05-0.79,0.12l0.28,0.52
			c0.029-0.01,0.06-0.03,0.09-0.03C13.089,7.53,13.299,7.5,13.498,7.5z M14.948,10.39c0.12-0.48,0.02-0.95-0.271-1.32
			c-0.289-0.36-0.72-0.57-1.18-0.57c-0.069,0-0.149,0.02-0.22,0.03l0.66,1.23c0.13,0.25,0.04,0.55-0.2,0.68
			c-0.08,0.04-0.16,0.06-0.24,0.06c-0.18,0-0.35-0.09-0.439-0.26l-0.67-1.25c-0.16,0.18-0.29,0.39-0.34,0.62
			c-0.12,0.48-0.021,0.95,0.27,1.32c0.29,0.36,0.72,0.57,1.18,0.57c0.13,0,0.261-0.01,0.391-0.05
			C14.398,11.33,14.828,10.9,14.948,10.39z"/>
		<path d="M2.501,7.5c1.579,0,2.819,1.47,2.429,3.12C4.72,11.5,4,12.22,3.12,12.43C2.91,12.48,2.7,12.5,2.501,12.5
			c-1.58,0-2.819-1.47-2.42-3.12c0.21-0.88,0.92-1.59,1.8-1.8C2.091,7.53,2.301,7.5,2.501,7.5z M3.95,10.39
			c0.12-0.48,0.021-0.95-0.27-1.32c-0.29-0.36-0.72-0.57-1.18-0.57c-0.13,0-0.261,0.02-0.391,0.05c-0.51,0.12-0.939,0.55-1.06,1.06
			c-0.12,0.48-0.02,0.95,0.271,1.32c0.289,0.36,0.72,0.57,1.18,0.57c0.13,0,0.26-0.01,0.39-0.05C3.4,11.33,3.83,10.9,3.95,10.39z"/>
		<path d="M2.501,9.5C2.78,9.5,3,9.73,3,10c0,0.28-0.22,0.5-0.499,0.5c-0.28,0-0.5-0.22-0.5-0.5C2.001,9.73,2.221,9.5,2.501,9.5z"/>
	</g>
</g>
</svg>
