<?xml version="1.0" encoding="utf-8"?>
<!-- Generator: Adobe Illustrator 16.0.2, SVG Export Plug-In . SVG Version: 6.00 Build 0)  -->
<!DOCTYPE svg PUBLIC "-//W3C//DTD SVG 1.1//EN" "http://www.w3.org/Graphics/SVG/1.1/DTD/svg11.dtd">
<svg version="1.1" id="Layer_1" xmlns="http://www.w3.org/2000/svg" xmlns:xlink="http://www.w3.org/1999/xlink" x="0px" y="0px"
	 width="16px" height="15.998px" viewBox="0 0 16 15.998" enable-background="new 0 0 16 15.998" xml:space="preserve">
<g id="Parachute_1_">
	<g>
		<path d="M14.899,5.568c0.07,0.44,0.11,0.85,0.1,1.27c-0.01,0.51-6.159,8.72-6.229,8.8c-0.19,0.23-0.47,0.36-0.771,0.36
			c-0.3,0-0.59-0.13-0.779-0.36c-0.061-0.08-6.2-8.3-6.221-8.8c0,0,0-0.12,0-0.13c0-1.95,0.881-3.8,2.421-5.07
			c1.63-1.36,3.81-1.91,5.97-1.51C12.22,0.647,14.43,2.838,14.899,5.568z M13.85,6.908c-0.3-0.24-0.84-0.59-1.521-0.59
			c-0.83,0-1.489,0.55-1.71,0.76l-1.67,6.69C10.55,11.638,13.109,8.018,13.85,6.908z M7.999,13.438l1.61-6.46
			c-0.28-0.24-0.87-0.66-1.61-0.66c-0.729,0-1.329,0.43-1.609,0.67L7.999,13.438z M7.06,13.788l-1.68-6.71
			c-0.221-0.22-0.87-0.76-1.71-0.76c-0.671,0-1.21,0.34-1.521,0.59C2.899,8.018,5.46,11.658,7.06,13.788z"/>
	</g>
</g>
</svg>
