<?xml version="1.0" encoding="utf-8"?>
<!-- Generator: Adobe Illustrator 16.0.2, SVG Export Plug-In . SVG Version: 6.00 Build 0)  -->
<!DOCTYPE svg PUBLIC "-//W3C//DTD SVG 1.1//EN" "http://www.w3.org/Graphics/SVG/1.1/DTD/svg11.dtd">
<svg version="1.1" id="Layer_1" xmlns="http://www.w3.org/2000/svg" xmlns:xlink="http://www.w3.org/1999/xlink" x="0px" y="0px"
	 width="16px" height="16px" viewBox="0 0 16 16" enable-background="new 0 0 16 16" xml:space="preserve">
<g id="Roller-skates">
	<path d="M14.76,12.15c0.15-0.18,0.24-0.4,0.24-0.65V11c0-2.796-3.034-3.082-4.979-3.958C9.959,7.014,9.896,7,9.828,7H6.4
		C6.13,7,5.9,6.78,5.9,6.5S6.13,6,6.4,6h1.561c0.276,0,0.5-0.224,0.5-0.5S8.237,5,7.961,5H5.8C5.52,5,5.3,4.78,5.3,4.5S5.52,4,5.8,4
		h1.885c0.276,0,0.5-0.224,0.5-0.5S7.961,3,7.685,3H5.6C5.33,3,5.1,2.78,5.1,2.5S5.33,2,5.6,2h1.949h0.004
		c0.214,0,0.394-0.135,0.465-0.324c0.006-0.015,0.005-0.032,0.01-0.047C8.039,1.587,8.053,1.546,8.053,1.5
		c0-0.006-0.003-0.012-0.003-0.018s0.003-0.011,0.002-0.017L8.05,1.421C8.005,0.624,7.346,0,6.548,0H2.5C1.672,0,1,0.671,1,1.5v10
		c0,0.25,0.09,0.47,0.24,0.65C0.52,12.45,0,13.17,0,14c0,1.259,1.158,2.235,2.453,1.95c0.737-0.163,1.345-0.77,1.5-1.509
		C4.115,13.67,3.841,12.946,3.32,12.5h1.37c-0.538,0.461-0.83,1.218-0.624,2.018c0.193,0.745,0.844,1.337,1.604,1.456
		C6.928,16.171,8,15.218,8,14c0-0.6-0.26-1.14-0.68-1.5h1.37c-0.538,0.461-0.83,1.218-0.624,2.018
		c0.193,0.745,0.844,1.337,1.604,1.456C10.928,16.171,12,15.218,12,14c0-0.6-0.26-1.14-0.68-1.5h1.37
		c-0.538,0.461-0.83,1.218-0.624,2.018c0.193,0.745,0.844,1.337,1.604,1.456C14.928,16.171,16,15.218,16,14
		C16,13.17,15.49,12.45,14.76,12.15z M2,14.5c-0.28,0-0.5-0.22-0.5-0.5c0-0.27,0.22-0.5,0.5-0.5s0.5,0.23,0.5,0.5
		C2.5,14.28,2.28,14.5,2,14.5z M6,14.5c-0.28,0-0.5-0.22-0.5-0.5c0-0.27,0.22-0.5,0.5-0.5s0.5,0.23,0.5,0.5
		C6.5,14.28,6.28,14.5,6,14.5z M10,14.5c-0.28,0-0.5-0.22-0.5-0.5c0-0.27,0.22-0.5,0.5-0.5s0.5,0.23,0.5,0.5
		C10.5,14.28,10.28,14.5,10,14.5z M14,14.5c-0.28,0-0.5-0.22-0.5-0.5c0-0.27,0.22-0.5,0.5-0.5s0.5,0.23,0.5,0.5
		C14.5,14.28,14.28,14.5,14,14.5z"/>
</g>
</svg>
