<?xml version="1.0" encoding="utf-8"?>
<!-- Generator: Adobe Illustrator 16.0.2, SVG Export Plug-In . SVG Version: 6.00 Build 0)  -->
<!DOCTYPE svg PUBLIC "-//W3C//DTD SVG 1.1//EN" "http://www.w3.org/Graphics/SVG/1.1/DTD/svg11.dtd">
<svg version="1.1" id="Layer_1" xmlns="http://www.w3.org/2000/svg" xmlns:xlink="http://www.w3.org/1999/xlink" x="0px" y="0px"
	 width="16px" height="16px" viewBox="0 0 16 16" enable-background="new 0 0 16 16" xml:space="preserve">
<g id="Rugby">
	<path d="M13.468,0.161C13.072,0.053,12.645,0,12.191,0c-2.391,0-5.48,1.477-8.104,4.091c-3.11,3.119-4.6,6.898-3.93,9.378
		c0.55-2.05,2.55-5.04,5.41-7.899C8.428,2.711,11.428,0.721,13.468,0.161z"/>
	<path d="M14.218,3.881c0.9-1.74,0.86-2.63,0.69-2.79c-0.04-0.04-0.16-0.09-0.391-0.09c-1.479,0-4.779,1.81-8.24,5.27
		c-1.97,1.97-3.56,4.049-4.5,5.849c-0.89,1.74-0.85,2.63-0.689,2.79c0.04,0.04,0.17,0.09,0.4,0.09c1.47,0,4.779-1.81,8.239-5.27
		C11.688,7.76,13.288,5.681,14.218,3.881z"/>
	<path d="M15.838,2.541c-0.561,2.04-2.55,5.039-5.4,7.889c-2.859,2.859-5.859,4.849-7.899,5.409C2.933,15.947,3.36,16,3.813,16
		c2.392,0,5.479-1.477,8.095-4.091C15.027,8.79,16.518,5.011,15.838,2.541z"/>
</g>
</svg>
