<?xml version="1.0" encoding="utf-8"?>
<!-- Generator: Adobe Illustrator 16.0.2, SVG Export Plug-In . SVG Version: 6.00 Build 0)  -->
<!DOCTYPE svg PUBLIC "-//W3C//DTD SVG 1.1//EN" "http://www.w3.org/Graphics/SVG/1.1/DTD/svg11.dtd">
<svg version="1.1" id="Layer_1" xmlns="http://www.w3.org/2000/svg" xmlns:xlink="http://www.w3.org/1999/xlink" x="0px" y="0px"
	 width="16px" height="16px" viewBox="0 0 16 16" enable-background="new 0 0 16 16" xml:space="preserve">
<g id="Running_1_">
	<g>
		<path d="M15.988,12.55c-0.1-0.61-0.71-0.97-1.491-1.42c-0.781-0.46-1.761-1.03-2.421-1.96c-0.48-0.67-0.721-1.71-0.92-2.55
			c-0.12-0.53-0.23-0.99-0.38-1.32c-0.14-0.35-0.48-0.58-0.871-0.58c-0.21,0.01-1.281,0.02-2.001-0.56
			c-0.48-0.39-0.68-0.92-0.86-1.43l-0.05-0.14c-0.1-0.27-0.3-0.46-0.56-0.55C6.173,1.96,5.863,2,5.603,2.17
			c-1.221,0.77-2.161,1.52-3.302,3.1c-0.44,0.64-0.4,1.29,0.12,1.8l6.824,6.27c0.68,0.54,1.481,0.66,2.711,0.66h0.16
			c0.41-0.01,0.75,0,1.11,0h0.601c0.78,0,1.391,0,1.831-0.5C15.928,13.19,16.038,12.87,15.988,12.55z M9.145,6.66
			c0-0.27,0.22-0.5,0.5-0.5c0.27,0,0.5,0.23,0.5,0.5c0,0.28-0.23,0.5-0.5,0.5C9.365,7.16,9.145,6.94,9.145,6.66z M9.555,8.16
			c0-0.27,0.22-0.5,0.5-0.5c0.27,0,0.5,0.23,0.5,0.5c0,0.28-0.23,0.5-0.5,0.5C9.775,8.66,9.555,8.44,9.555,8.16z M10.646,10.16
			c-0.28,0-0.5-0.22-0.5-0.5c0-0.27,0.22-0.5,0.5-0.5c0.27,0,0.5,0.23,0.5,0.5C11.146,9.94,10.916,10.16,10.646,10.16z"/>
	</g>
	<path d="M6.502,13.961H0.5c-0.277,0-0.5-0.224-0.5-0.5S0.224,13,0.5,13h6.001c0.277,0,0.5,0.184,0.5,0.46
		S6.779,13.961,6.502,13.961z"/>
	<path d="M4.502,11.961H0.5c-0.277,0-0.5-0.224-0.5-0.5S0.224,11,0.5,11h4.002c0.276,0,0.5,0.184,0.5,0.46
		S4.779,11.961,4.502,11.961z"/>
	<path d="M2.5,9.961h-2c-0.277,0-0.5-0.224-0.5-0.5S0.224,9,0.5,9h2C2.776,9,3,9.185,3,9.461S2.776,9.961,2.5,9.961z"/>
</g>
</svg>
