<?xml version="1.0" encoding="utf-8"?>
<!-- Generator: Adobe Illustrator 16.0.2, SVG Export Plug-In . SVG Version: 6.00 Build 0)  -->
<!DOCTYPE svg PUBLIC "-//W3C//DTD SVG 1.1//EN" "http://www.w3.org/Graphics/SVG/1.1/DTD/svg11.dtd">
<svg version="1.1" id="Layer_1" xmlns="http://www.w3.org/2000/svg" xmlns:xlink="http://www.w3.org/1999/xlink" x="0px" y="0px"
	 width="16px" height="16px" viewBox="0 0 16 16" enable-background="new 0 0 16 16" xml:space="preserve">
<g id="Scuba-mask">
	<path d="M5.97,5.521c0.128-0.362,0.272-0.426,0.528-0.426c0.289,0,0.412,0.063,0.515,0.381c0.385,1.528,1.509,2.516,2.864,2.516
		c1.72,0,3.119-1.542,3.119-3.437V3c0-0.565-0.439-1-1-1H1.009C0.453,2,0,2.444,0,3v1.556c0,1.895,1.404,3.437,3.129,3.437
		C4.499,7.993,5.592,7.029,5.97,5.521z"/>
	<path d="M15.5,0C15.224,0,15,0.224,15,0.5v10.201c0,2.372-1.93,4.3-4.304,4.3c-2.373,0-4.303-1.929-4.303-4.3
		c0-0.015-0.007-0.027-0.008-0.042c0.001-0.014,0.008-0.026,0.008-0.041C6.396,9.723,6.039,9.234,5.72,8.97
		C5.716,8.966,5.714,8.961,5.71,8.957c0.005,0.003,0.009,0.006,0.014,0.01C5.726,8.968,5.728,8.968,5.73,8.969
		C5.731,8.97,5.732,8.972,5.733,8.973c0.306,0.203,0.569,0.304,0.834,0.304c0.237,0,0.474-0.081,0.744-0.24
		C7.317,9.033,7.32,9.027,7.325,9.024S7.337,9.02,7.342,9.017c0.005-0.004,0.011-0.007,0.016-0.011
		C7.346,9.017,7.341,9.031,7.331,9.043C6.939,9.408,6.731,9.926,6.73,10.602c0,0.003-0.001,0.005-0.001,0.007
		c0,0.001,0,0.002,0,0.004c0,0.002,0,0.004,0,0.005c0,0.004,0.002,0.006,0.002,0.01c0.011,2.178,1.785,3.947,3.966,3.947
		c2.188,0,3.969-1.78,3.969-3.966V0.5c0-0.276-0.224-0.5-0.5-0.5s-0.5,0.224-0.5,0.5v10.109c0,1.636-1.332,2.967-2.969,2.967
		c-1.636,0-2.966-1.329-2.968-2.963c0-0.43,0.106-0.722,0.328-0.894c0.057-0.044,0.1-0.098,0.132-0.158
		C8.572,9.116,8.577,8.6,8.329,8.271c-0.271-0.359-0.859-0.534-1.52-0.097C6.806,8.176,6.804,8.176,6.802,8.177
		C6.569,8.316,6.56,8.322,6.286,8.141c-0.001,0-0.002,0-0.003-0.001C5.612,7.681,5.011,7.858,4.738,8.221
		C4.453,8.598,4.468,9.23,5.052,9.709c0.002,0.002,0.006,0.003,0.008,0.005c0.001,0.001,0.002,0.003,0.004,0.005
		c0.223,0.171,0.33,0.464,0.329,0.897c0,0.015,0.007,0.028,0.008,0.042c-0.001,0.015-0.008,0.028-0.008,0.042
		c0,2.922,2.379,5.299,5.303,5.299S16,13.623,16,10.701V0.5C16,0.224,15.776,0,15.5,0z"/>
</g>
</svg>
