<?xml version="1.0" encoding="utf-8"?>
<!-- Generator: Adobe Illustrator 16.0.2, SVG Export Plug-In . SVG Version: 6.00 Build 0)  -->
<!DOCTYPE svg PUBLIC "-//W3C//DTD SVG 1.1//EN" "http://www.w3.org/Graphics/SVG/1.1/DTD/svg11.dtd">
<svg version="1.1" id="Layer_1" xmlns="http://www.w3.org/2000/svg" xmlns:xlink="http://www.w3.org/1999/xlink" x="0px" y="0px"
	 width="16px" height="16px" viewBox="0 0 16 16" enable-background="new 0 0 16 16" xml:space="preserve">
<g id="Shuttlecock">
	<path d="M15.22,7.39c-0.47-0.47-1.07-0.65-1.47-0.73c-0.07-0.4-0.25-0.99-0.73-1.47c-0.48-0.48-1.07-0.66-1.47-0.73
		c-0.07-0.4-0.26-0.99-0.74-1.47c-0.47-0.48-1.06-0.66-1.47-0.73C9.27,1.85,9.09,1.27,8.61,0.78C7.82,0,6.7,0.01,6.68,0
		C6.61,0,6.55,0.02,6.49,0.04C6.46,0.06,6.44,0.08,6.41,0.1C6.38,0.11,6.35,0.13,6.33,0.15C6.28,0.2,6.25,0.25,6.22,0.32l-3.9,9.72
		l-0.27,0.27l3.64,3.64l0.27-0.27l9.73-3.9c0.06-0.03,0.11-0.06,0.16-0.11c0.01-0.01,0.02-0.03,0.03-0.04
		c0.03-0.04,0.06-0.07,0.08-0.12c0.01-0.02,0.01-0.06,0.02-0.09C15.99,9.39,16,9.36,16,9.33C16,9.28,16.02,8.19,15.22,7.39z
		 M3.33,10.2l3.68-9.16C7.26,1.09,7.62,1.21,7.9,1.49c0.37,0.36,0.46,0.85,0.48,1.08l-4.98,7.7L3.33,10.2z M4.12,10.99l5.02-7.76
		C9.4,3.27,9.8,3.39,10.11,3.69c0.33,0.34,0.44,0.78,0.47,1.03l-6.37,6.36L4.12,10.99z M5.01,11.88l-0.09-0.09l6.36-6.36
		c0.25,0.03,0.69,0.13,1.03,0.47c0.31,0.31,0.42,0.71,0.46,0.96L5.01,11.88z M5.8,12.67l-0.06-0.06l7.69-4.99
		c0.23,0.03,0.72,0.12,1.08,0.48c0.29,0.28,0.4,0.64,0.45,0.89L5.8,12.67z M1.34,11.02l-0.58,0.59C0.27,12.09,0,12.74,0,13.43
		c0,0.68,0.27,1.33,0.76,1.81C1.24,15.73,1.89,16,2.58,16c0.69,0,1.34-0.27,1.82-0.76l0.58-0.58L1.34,11.02z"/>
</g>
</svg>
