<?xml version="1.0" encoding="utf-8"?>
<!-- Generator: Adobe Illustrator 16.0.2, SVG Export Plug-In . SVG Version: 6.00 Build 0)  -->
<!DOCTYPE svg PUBLIC "-//W3C//DTD SVG 1.1//EN" "http://www.w3.org/Graphics/SVG/1.1/DTD/svg11.dtd">
<svg version="1.1" id="Layer_1" xmlns="http://www.w3.org/2000/svg" xmlns:xlink="http://www.w3.org/1999/xlink" x="0px" y="0px"
	 width="16px" height="16px" viewBox="0 0 16 16" enable-background="new 0 0 16 16" xml:space="preserve">
<g id="Skateboard">
	<path d="M9,0H7C5.62,0,4.5,1.12,4.5,2.5v11C4.5,14.88,5.62,16,7,16h2c1.38,0,2.5-1.12,2.5-2.5v-11C11.5,1.12,10.38,0,9,0z
		 M10.5,12.38c0,0.34-0.28,0.62-0.62,0.62c-0.35,0-0.63-0.28-0.63-0.62V12h-2.5v0.38c0,0.34-0.28,0.62-0.63,0.62
		c-0.34,0-0.62-0.28-0.62-0.62v-1.75C5.5,10.28,5.78,10,6.12,10c0.35,0,0.63,0.28,0.63,0.63V11h2.5v-0.37
		c0-0.35,0.28-0.63,0.63-0.63c0.34,0,0.62,0.28,0.62,0.63V12.38z M10.5,5.38C10.5,5.72,10.22,6,9.87,6C9.53,6,9.25,5.72,9.25,5.38V5
		h-2.5v0.38C6.75,5.72,6.47,6,6.12,6C5.78,6,5.5,5.72,5.5,5.38V3.63C5.5,3.28,5.78,3,6.12,3c0.35,0,0.63,0.28,0.63,0.63V4h2.5V3.63
		C9.25,3.28,9.53,3,9.87,3c0.35,0,0.63,0.28,0.63,0.63V5.38z"/>
</g>
</svg>
