<?xml version="1.0" encoding="utf-8"?>
<!-- Generator: Adobe Illustrator 16.0.2, SVG Export Plug-In . SVG Version: 6.00 Build 0)  -->
<!DOCTYPE svg PUBLIC "-//W3C//DTD SVG 1.1//EN" "http://www.w3.org/Graphics/SVG/1.1/DTD/svg11.dtd">
<svg version="1.1" id="Layer_1" xmlns="http://www.w3.org/2000/svg" xmlns:xlink="http://www.w3.org/1999/xlink" x="0px" y="0px"
	 width="16px" height="16.002px" viewBox="0 0 16 16.002" enable-background="new 0 0 16 16.002" xml:space="preserve">
<g id="Skis_1_">
	<line x1="10" y1="16" x2="10" y2="16.002"/>
	<path d="M11.5,1.5c0-0.825-0.671-1.495-1.5-1.5C9.171,0.005,8.5,0.675,8.5,1.5c0,0,0.251,4.87,0.251,6.5S8.5,14.5,8.5,14.5
		c0,0.825,0.671,1.495,1.5,1.5c0.829-0.005,1.5-0.675,1.5-1.5c0,0-0.251-4.875-0.251-6.5S11.5,1.5,11.5,1.5z"/>
	<line x1="6" y1="16" x2="6" y2="16.002"/>
	<path d="M6,0C5.171,0.005,4.5,0.675,4.5,1.5c0,0,0.251,4.87,0.251,6.5S4.5,14.5,4.5,14.5c0,0.825,0.671,1.495,1.5,1.5
		c0.829-0.005,1.5-0.675,1.5-1.5c0,0-0.251-4.875-0.251-6.5S7.5,1.5,7.5,1.5C7.5,0.675,6.829,0.005,6,0z"/>
</g>
</svg>
