<?xml version="1.0" encoding="utf-8"?>
<!-- Generator: Adobe Illustrator 16.0.2, SVG Export Plug-In . SVG Version: 6.00 Build 0)  -->
<!DOCTYPE svg PUBLIC "-//W3C//DTD SVG 1.1//EN" "http://www.w3.org/Graphics/SVG/1.1/DTD/svg11.dtd">
<svg version="1.1" id="Layer_1" xmlns="http://www.w3.org/2000/svg" xmlns:xlink="http://www.w3.org/1999/xlink" x="0px" y="0px"
	 width="16px" height="16px" viewBox="0 0 16 16" enable-background="new 0 0 16 16" xml:space="preserve">
<path id="Snowboard_1_" d="M11,2.5C11,1.12,9.88,0,8.5,0h-1C6.12,0,5,1.12,5,2.5c0,0,0.5,4.13,0.5,5.5c0,1.38-0.5,5.5-0.5,5.5
	C5,14.88,6.12,16,7.5,16h1c1.38,0,2.5-1.12,2.5-2.5c0,0-0.5-4.12-0.5-5.5C10.5,6.63,11,2.5,11,2.5z M7,4c0.28,0,0.5,0.22,0.5,0.5
	S7.28,5,7,5S6.5,4.78,6.5,4.5S6.72,4,7,4z M7,11c0.28,0,0.5,0.22,0.5,0.5S7.28,12,7,12s-0.5-0.22-0.5-0.5S6.72,11,7,11z M9,12
	c-0.28,0-0.5-0.22-0.5-0.5S8.72,11,9,11s0.5,0.22,0.5,0.5S9.28,12,9,12z M9,5C8.72,5,8.5,4.78,8.5,4.5S8.72,4,9,4s0.5,0.22,0.5,0.5
	S9.28,5,9,5z"/>
</svg>
