<?xml version="1.0" encoding="utf-8"?>
<!-- Generator: Adobe Illustrator 16.0.2, SVG Export Plug-In . SVG Version: 6.00 Build 0)  -->
<!DOCTYPE svg PUBLIC "-//W3C//DTD SVG 1.1//EN" "http://www.w3.org/Graphics/SVG/1.1/DTD/svg11.dtd">
<svg version="1.1" id="Layer_1" xmlns="http://www.w3.org/2000/svg" xmlns:xlink="http://www.w3.org/1999/xlink" x="0px" y="0px"
	 width="16px" height="16px" viewBox="0 0 16 16" enable-background="new 0 0 16 16" xml:space="preserve">
<path d="M14.757,7.571l-2.535-1.526l2.685-3.751c0.093-0.13,0.117-0.3,0.066-0.452c-0.044-0.133-0.143-0.241-0.271-0.299
	s-0.274-0.059-0.403-0.001L9.5,3.641V1.072c0-0.011-0.006-0.02-0.006-0.03C9.493,1.03,9.498,1.021,9.496,1.009
	C9.463,0.751,9.257-0.068,8.058,0.006C6.791,0.1,5.084,0.481,2.003,2.506V2.432C2.002,2.433,2.001,2.434,2,2.435V0.5
	C2,0.224,1.776,0,1.5,0S1,0.224,1,0.5v15C1,15.776,1.224,16,1.5,16S2,15.776,2,15.5v-5.335C4.348,8.558,5.879,7.9,7,7.631v3.375
	l0,0.001c0,0.017,0.008,0.033,0.01,0.05c0.003,0.034,0.01,0.066,0.02,0.099c0.005,0.016,0.004,0.032,0.01,0.047v0.001
	c0,0.001,0.002,0.001,0.002,0.003c0.006,0.013,0.017,0.022,0.024,0.035c0.015,0.027,0.032,0.053,0.053,0.078
	c0.021,0.026,0.045,0.049,0.072,0.07c0.014,0.011,0.021,0.026,0.037,0.036c0.009,0.006,0.021,0.003,0.03,0.009
	c0.072,0.041,0.151,0.07,0.241,0.071H7.5c0.07,0,0.137-0.016,0.198-0.041l6.999-3.006c0.172-0.073,0.289-0.238,0.302-0.425
	C15.011,7.847,14.918,7.668,14.757,7.571z M8.5,7.531C8.502,7.851,8.309,8.423,8,9.082V7.466c0.042-0.004,0.09-0.011,0.131-0.014
	C8.373,7.431,8.482,7.48,8.5,7.526V7.531z M8.5,6.491C8.36,6.471,8.224,6.444,8.058,6.454C6.792,6.547,5.072,6.95,2,8.967V3.713
	c3.246-2.226,4.92-2.62,6.132-2.709C8.456,0.974,8.489,1.049,8.5,1.119V6.491z M8.688,9.952c0.439-0.85,0.785-1.732,0.806-2.358
	C9.495,7.583,9.5,7.573,9.5,7.562V7.515c0-0.001,0-0.002,0-0.002V4.731l3.54-1.548l-1.946,2.72
	c-0.081,0.113-0.111,0.256-0.083,0.393s0.112,0.255,0.232,0.327l2.163,1.303L8.688,9.952z"/>
</svg>
