<?xml version="1.0" encoding="utf-8"?>
<!-- Generator: Adobe Illustrator 16.0.2, SVG Export Plug-In . SVG Version: 6.00 Build 0)  -->
<!DOCTYPE svg PUBLIC "-//W3C//DTD SVG 1.1//EN" "http://www.w3.org/Graphics/SVG/1.1/DTD/svg11.dtd">
<svg version="1.1" id="Layer_1" xmlns="http://www.w3.org/2000/svg" xmlns:xlink="http://www.w3.org/1999/xlink" x="0px" y="0px"
	 width="32px" height="32px" viewBox="0 0 32 32" enable-background="new 0 0 32 32" xml:space="preserve">
<g id="Start_7_">
	<path fill="#60CBE0" d="M16,0C7.16,0,0,7.16,0,16s7.16,16,16,16s16-7.16,16-16S24.84,0,16,0z M17.5,15.7
		c-0.32-0.21-0.74-0.31-1.22-0.27c-0.38,0.03-0.8,0.08-1.28,0.2c-0.14,0.03-0.29,0.07-0.45,0.12c-0.15,0.05-0.31,0.1-0.47,0.16
		c-0.51,0.19-1.09,0.45-1.76,0.82c-0.38,0.2-0.79,0.44-1.24,0.73c-0.34,0.21-0.7,0.45-1.08,0.71v5.33c0,0.28-0.23,0.5-0.5,0.5
		C9.22,24,9,23.78,9,23.5v-15C9,8.23,9.22,8,9.5,8C9.77,8,10,8.23,10,8.5v2.02c3.07-2.02,4.79-2.42,6.06-2.51
		c1.2-0.09,1.4,0.74,1.44,1v4.98C17.5,14.67,17.51,15.42,17.5,15.7z M22.7,16.46l-4.03,1.73c-0.41,0.18-0.83-0.25-0.65-0.66
		c0.24-0.55,0.41-1.1,0.47-1.6c0.02-0.17,0.01-1.3,0.01-1.95V11.2l3.8-1.66c0.13-0.05,0.27-0.06,0.4,0c0.13,0.06,0.23,0.17,0.27,0.3
		c0.06,0.15,0.03,0.32-0.06,0.45l-2.69,3.76l2.54,1.52c0.16,0.1,0.25,0.28,0.24,0.46C22.99,16.22,22.87,16.39,22.7,16.46z"/>
</g>
</svg>
