<?xml version="1.0" encoding="utf-8"?>
<!-- Generator: Adobe Illustrator 16.0.2, SVG Export Plug-In . SVG Version: 6.00 Build 0)  -->
<!DOCTYPE svg PUBLIC "-//W3C//DTD SVG 1.1//EN" "http://www.w3.org/Graphics/SVG/1.1/DTD/svg11.dtd">
<svg version="1.1" id="Layer_1" xmlns="http://www.w3.org/2000/svg" xmlns:xlink="http://www.w3.org/1999/xlink" x="0px" y="0px"
	 width="16px" height="16px" viewBox="0 0 16 16" enable-background="new 0 0 16 16" xml:space="preserve">
<g id="Start_4_">
	<path fill="#60CBE0" d="M9.5,1.01c-0.04-0.26-0.24-1.09-1.44-1C6.79,0.1,5.07,0.5,2,2.52V0.5C2,0.23,1.77,0,1.5,0
		C1.22,0,1,0.23,1,0.5v15C1,15.78,1.22,16,1.5,16C1.77,16,2,15.78,2,15.5v-5.33c0.38-0.26,0.74-0.5,1.08-0.71
		c0.45-0.29,0.86-0.53,1.24-0.73C4.99,8.36,5.57,8.1,6.08,7.91c0.16-0.06,0.32-0.11,0.47-0.16C6.709,7.7,6.859,7.66,7,7.63
		c0.48-0.12,0.9-0.17,1.28-0.2c0.48-0.04,0.9,0.06,1.22,0.27c0.01-0.28,0-1.03,0-1.71V1.01z"/>
	<path fill="#60CBE0" d="M14.759,7.57l-2.54-1.52l2.689-3.76c0.09-0.13,0.12-0.3,0.06-0.45c-0.04-0.13-0.14-0.24-0.27-0.3
		s-0.27-0.05-0.4,0l-3.8,1.66v2.78c0,0.65,0.01,1.78-0.01,1.95c-0.058,0.502-0.229,1.047-0.467,1.598
		c-0.18,0.416,0.235,0.838,0.652,0.659l4.024-1.727c0.17-0.07,0.29-0.24,0.3-0.43C15.009,7.85,14.919,7.67,14.759,7.57z"/>
</g>
</svg>
