<?xml version="1.0" encoding="utf-8"?>
<!-- Generator: Adobe Illustrator 16.0.2, SVG Export Plug-In . SVG Version: 6.00 Build 0)  -->
<!DOCTYPE svg PUBLIC "-//W3C//DTD SVG 1.1//EN" "http://www.w3.org/Graphics/SVG/1.1/DTD/svg11.dtd">
<svg version="1.1" id="Layer_1" xmlns="http://www.w3.org/2000/svg" xmlns:xlink="http://www.w3.org/1999/xlink" x="0px" y="0px"
	 width="16px" height="16px" viewBox="0 0 16 16" enable-background="new 0 0 16 16" xml:space="preserve">
<g id="Stopwatch_1_">
	<path d="M8.496,2.029c-0.001,0-0.003,0-0.004,0c0-0.01,0.005-0.019,0.005-0.029V1h1.5c0.276,0,0.5-0.224,0.5-0.5S10.273,0,9.997,0
		h-4c-0.276,0-0.5,0.224-0.5,0.5S5.721,1,5.997,1h1.5v1c0,0.01,0.005,0.019,0.006,0.029c-0.002,0-0.004,0-0.007,0
		c-3.64,0.24-6.5,3.28-6.5,6.97c0,3.87,3.13,7,7,7c3.87,0,7-3.13,7-7C14.996,5.309,12.136,2.269,8.496,2.029z M10.476,7.229
		l-2.13,2.12c-0.09,0.1-0.22,0.15-0.35,0.15c-0.13,0-0.25-0.05-0.35-0.15c-0.2-0.19-0.2-0.51,0-0.7l2.12-2.12
		c0.19-0.2,0.51-0.2,0.71,0C10.667,6.719,10.667,7.04,10.476,7.229z"/>
	<path d="M15.5,5.996c-0.157,0-0.311-0.073-0.409-0.211l-1.264-1.784c-0.159-0.226-0.106-0.538,0.119-0.698
		c0.226-0.159,0.537-0.106,0.697,0.119l1.264,1.785c0.16,0.226,0.106,0.538-0.119,0.697C15.701,5.966,15.601,5.996,15.5,5.996z"/>
	<path d="M0.5,5.996c-0.1,0-0.201-0.03-0.289-0.092c-0.225-0.16-0.279-0.472-0.119-0.697l1.264-1.785
		c0.161-0.226,0.472-0.278,0.697-0.119c0.225,0.16,0.279,0.472,0.119,0.698L0.908,5.785C0.811,5.923,0.657,5.996,0.5,5.996z"/>
</g>
</svg>
