<?xml version="1.0" encoding="utf-8"?>
<!-- Generator: Adobe Illustrator 16.0.2, SVG Export Plug-In . SVG Version: 6.00 Build 0)  -->
<!DOCTYPE svg PUBLIC "-//W3C//DTD SVG 1.1//EN" "http://www.w3.org/Graphics/SVG/1.1/DTD/svg11.dtd">
<svg version="1.1" id="Layer_1" xmlns="http://www.w3.org/2000/svg" xmlns:xlink="http://www.w3.org/1999/xlink" x="0px" y="0px"
	 width="16px" height="16px" viewBox="0 0 16 16" enable-background="new 0 0 16 16" xml:space="preserve">
<g id="Surfboard_1_">
	<path d="M11.3,12.11c-0.06-0.05-0.13-0.11-0.2-0.16c-0.16-0.12-0.33-0.23-0.51-0.34c-0.16-0.09-0.33-0.19-0.51-0.28
		c-0.25-0.13-0.92-0.45-1.73-0.66C8.09,10.6,7.931,10.32,8,10.06C8.07,9.79,8.34,9.63,8.61,9.7c0.78,0.21,1.45,0.51,1.79,0.68
		c0.07-0.75,0.12-1.55,0.12-2.39c0-3.83-1.79-6.78-2.61-7.8C7.811,0.06,7.661,0,7.521,0c-0.15,0-0.3,0.06-0.4,0.19
		c-0.81,1.02-2.6,3.97-2.6,7.8c0,3.56,0.77,6.52,1.2,7.69C5.8,15.88,5.99,16,6.19,16c0.12,0,0.25-0.05,0.35-0.15l0.62-0.62
		c0.1-0.1,0.23-0.15,0.36-0.15c0.12,0,0.25,0.05,0.35,0.15l0.62,0.62c0.1,0.1,0.23,0.15,0.36,0.15c0.19,0,0.38-0.11,0.46-0.32
		c0.21-0.54,0.48-1.48,0.72-2.69h0.95C11.44,12.99,11.661,12.41,11.3,12.11z"/>
</g>
</svg>
