<?xml version="1.0" encoding="utf-8"?>
<!-- Generator: Adobe Illustrator 16.0.2, SVG Export Plug-In . SVG Version: 6.00 Build 0)  -->
<!DOCTYPE svg PUBLIC "-//W3C//DTD SVG 1.1//EN" "http://www.w3.org/Graphics/SVG/1.1/DTD/svg11.dtd">
<svg version="1.1" id="Layer_1" xmlns="http://www.w3.org/2000/svg" xmlns:xlink="http://www.w3.org/1999/xlink" x="0px" y="0px"
	 width="16px" height="16px" viewBox="0 0 16 16" enable-background="new 0 0 16 16" xml:space="preserve">
<g id="Swimming_1_">
	<path d="M13.625,12.078c-0.822,0-1.483,0.412-1.873,0.732c-0.388-0.321-1.046-0.732-1.877-0.732c-0.822,0-1.483,0.412-1.873,0.732
		c-0.388-0.321-1.046-0.732-1.877-0.732c-0.822,0-1.483,0.412-1.873,0.732c-0.388-0.321-1.046-0.732-1.877-0.732
		c-1.316,0-2.22,1.055-2.257,1.1c-0.178,0.211-0.151,0.527,0.06,0.705c0.212,0.179,0.528,0.15,0.705-0.06
		c0.006-0.008,0.65-0.744,1.493-0.744c0.856,0,1.485,0.735,1.49,0.74c0.009,0.011,0.022,0.015,0.031,0.024
		c0.012,0.013,0.018,0.028,0.032,0.04c0.021,0.018,0.046,0.023,0.068,0.037c0.025,0.015,0.048,0.031,0.075,0.041
		c0.04,0.016,0.081,0.022,0.123,0.027C4.213,13.99,4.231,14,4.25,14c0.008,0,0.015-0.003,0.023-0.004
		c0.023-0.001,0.045-0.007,0.068-0.012c0.036-0.007,0.071-0.015,0.105-0.03c0.024-0.01,0.046-0.024,0.068-0.039
		c0.018-0.011,0.037-0.017,0.053-0.03c0.012-0.01,0.017-0.023,0.028-0.034c0.011-0.011,0.026-0.017,0.036-0.029
		c0.006-0.008,0.65-0.744,1.493-0.744c0.856,0,1.485,0.735,1.49,0.74c0.009,0.011,0.022,0.015,0.031,0.024
		c0.012,0.013,0.018,0.028,0.032,0.04c0.021,0.018,0.046,0.024,0.068,0.038c0.025,0.015,0.048,0.03,0.075,0.041
		c0.041,0.016,0.081,0.022,0.124,0.027C7.963,13.99,7.981,14,8,14c0.008,0,0.015-0.003,0.023-0.004
		c0.023-0.001,0.045-0.007,0.068-0.012c0.036-0.007,0.07-0.015,0.105-0.03c0.024-0.01,0.046-0.024,0.069-0.039
		c0.017-0.011,0.037-0.017,0.053-0.03c0.012-0.01,0.017-0.023,0.028-0.034c0.011-0.011,0.026-0.017,0.036-0.029
		c0.006-0.008,0.65-0.744,1.493-0.744c0.856,0,1.485,0.735,1.49,0.74c0.009,0.011,0.022,0.015,0.031,0.024
		c0.012,0.013,0.018,0.028,0.032,0.04c0.021,0.017,0.046,0.023,0.068,0.037c0.025,0.015,0.048,0.031,0.075,0.041
		c0.041,0.016,0.081,0.022,0.123,0.027C11.713,13.99,11.731,14,11.75,14c0.008,0,0.015-0.003,0.023-0.004
		c0.024-0.001,0.046-0.008,0.069-0.012c0.035-0.006,0.07-0.015,0.104-0.029c0.025-0.011,0.047-0.025,0.07-0.04
		c0.017-0.011,0.036-0.016,0.052-0.029c0.012-0.01,0.017-0.023,0.027-0.034c0.012-0.011,0.026-0.017,0.037-0.029
		c0.006-0.008,0.65-0.744,1.493-0.744c0.856,0,1.485,0.735,1.49,0.74C15.213,13.938,15.356,14,15.5,14
		c0.112,0,0.225-0.038,0.318-0.115c0.213-0.176,0.243-0.491,0.067-0.704C15.848,13.136,14.958,12.078,13.625,12.078z"/>
	<path d="M0.882,10.822c0.006-0.008,0.65-0.744,1.493-0.744c0.856,0,1.485,0.735,1.49,0.74c0.009,0.011,0.022,0.015,0.031,0.024
		c0.012,0.012,0.018,0.028,0.032,0.04c0.021,0.018,0.046,0.024,0.069,0.038c0.024,0.015,0.047,0.03,0.074,0.041
		c0.042,0.017,0.083,0.023,0.127,0.028C4.215,10.99,4.232,11,4.25,11c0.007,0,0.014-0.003,0.021-0.004
		c0.025-0.001,0.048-0.007,0.073-0.012c0.035-0.007,0.068-0.015,0.101-0.029c0.025-0.011,0.047-0.025,0.07-0.041
		c0.017-0.011,0.036-0.016,0.052-0.029c0.012-0.01,0.017-0.023,0.027-0.034c0.012-0.011,0.026-0.017,0.037-0.029
		c0.006-0.008,0.65-0.744,1.493-0.744c0.856,0,1.485,0.735,1.49,0.74c0.009,0.011,0.022,0.015,0.031,0.024
		c0.012,0.012,0.018,0.028,0.032,0.04c0.021,0.018,0.046,0.024,0.069,0.038c0.025,0.015,0.047,0.03,0.074,0.041
		c0.042,0.017,0.083,0.023,0.127,0.028C7.965,10.99,7.982,11,8,11c0.007,0,0.014-0.003,0.021-0.004
		c0.025-0.001,0.048-0.007,0.073-0.012c0.035-0.007,0.068-0.015,0.101-0.029c0.025-0.011,0.048-0.025,0.071-0.041
		c0.017-0.011,0.036-0.016,0.052-0.029c0.012-0.01,0.017-0.023,0.027-0.034c0.012-0.011,0.026-0.017,0.037-0.029
		c0.006-0.008,0.65-0.744,1.493-0.744c0.856,0,1.485,0.735,1.49,0.74c0.009,0.011,0.022,0.015,0.031,0.024
		c0.012,0.012,0.018,0.028,0.032,0.04c0.021,0.018,0.046,0.024,0.069,0.038c0.024,0.015,0.047,0.03,0.074,0.041
		c0.042,0.016,0.083,0.023,0.126,0.028C11.715,10.99,11.732,11,11.75,11c0.007,0,0.014-0.003,0.021-0.004
		c0.025-0.001,0.049-0.008,0.074-0.013c0.034-0.006,0.067-0.014,0.1-0.028c0.025-0.011,0.048-0.025,0.072-0.041
		c0.017-0.011,0.036-0.016,0.051-0.029c0.012-0.01,0.017-0.023,0.027-0.034c0.011-0.011,0.026-0.017,0.037-0.029
		c0.006-0.008,0.65-0.744,1.493-0.744c0.856,0,1.485,0.735,1.49,0.74C15.213,10.938,15.356,11,15.5,11
		c0.112,0,0.225-0.038,0.318-0.115c0.213-0.176,0.243-0.491,0.067-0.704c-0.037-0.045-0.927-1.104-2.26-1.104
		c-0.822,0-1.483,0.412-1.873,0.732c-0.074-0.062-0.159-0.126-0.252-0.19V2.5C11.5,2.224,11.276,2,11,2s-0.5,0.224-0.5,0.5v1.969h-5
		V2.5C5.5,2.224,5.276,2,5,2S4.5,2.224,4.5,2.5v7.123C4.409,9.686,4.325,9.749,4.252,9.809C3.864,9.488,3.206,9.077,2.375,9.077
		c-1.316,0-2.22,1.055-2.257,1.1c-0.178,0.212-0.151,0.527,0.06,0.705C0.39,11.061,0.706,11.033,0.882,10.822z M10.5,5.469v1h-5v-1
		H10.5z M5.5,7.47h5v1.694c-0.196-0.049-0.402-0.086-0.625-0.086c-0.822,0-1.483,0.412-1.873,0.732
		C7.614,9.488,6.956,9.077,6.125,9.077c-0.223,0-0.428,0.038-0.625,0.088V7.47z"/>
</g>
</svg>
