<?xml version="1.0" encoding="utf-8"?>
<!-- Generator: Adobe Illustrator 16.0.2, SVG Export Plug-In . SVG Version: 6.00 Build 0)  -->
<!DOCTYPE svg PUBLIC "-//W3C//DTD SVG 1.1//EN" "http://www.w3.org/Graphics/SVG/1.1/DTD/svg11.dtd">
<svg version="1.1" id="Layer_1" xmlns="http://www.w3.org/2000/svg" xmlns:xlink="http://www.w3.org/1999/xlink" x="0px" y="0px"
	 width="16px" height="16px" viewBox="0 0 16 16" enable-background="new 0 0 16 16" xml:space="preserve">
<g id="Table-tennis">
	<path d="M0.293,13.26c-0.39,0.39-0.39,1.02,0,1.41l1.04,1.04C1.522,15.9,1.783,16,2.043,16c0.25,0,0.51-0.1,0.7-0.29l1.97-1.97
		l-2.45-2.45L0.293,13.26z"/>
	<path d="M14.283,1.72C13.133,0.58,11.633,0,10.133,0s-3,0.58-4.15,1.72l-2.92,2.92c-1.63,1.64-1.66,4.26-0.09,5.94v0.01l2.45,2.45
		v-0.01c0.82,0.77,1.86,1.16,2.91,1.16c1.1,0,2.189-0.41,3.03-1.25l2.92-2.92C16.572,7.73,16.572,4.01,14.283,1.72z"/>
	<path d="M1.983,4.02L1.983,4.02c1.105,0,2-0.895,2.001-1.999c0-1.104-0.895-2-2-2.001h0C0.88,0.02,0,0.915,0,2.019
		C0,3.124,0.879,4.02,1.983,4.02z"/>
</g>
</svg>
