<?xml version="1.0" encoding="utf-8"?>
<!-- Generator: Adobe Illustrator 16.0.2, SVG Export Plug-In . SVG Version: 6.00 Build 0)  -->
<!DOCTYPE svg PUBLIC "-//W3C//DTD SVG 1.1//EN" "http://www.w3.org/Graphics/SVG/1.1/DTD/svg11.dtd">
<svg version="1.1" id="Layer_1" xmlns="http://www.w3.org/2000/svg" xmlns:xlink="http://www.w3.org/1999/xlink" x="0px" y="0px"
	 width="16px" height="16px" viewBox="0 0 16 16" enable-background="new 0 0 16 16" xml:space="preserve">
<g id="Tennis">
	<path d="M2.002,4.002C2.002,4.002,2.002,4.002,2.002,4.002c1.104,0,2-0.895,2.001-1.999c0-1.104-0.896-2-2-2.001l0,0
		c-1.104,0-2,0.895-2,2C0.002,3.106,0.897,4.002,2.002,4.002z"/>
	<path d="M14.608,1.393C13.673,0.457,12.416,0,11.089,0C9.423,0,7.645,0.719,6.25,2.115C4.807,3.559,4.092,5.41,4.143,7.125
		C4.142,7.132,4.138,7.139,4.138,7.146L4.129,7.57c-0.026,1.338-0.043,2.222-0.686,2.899c-0.002,0.002-0.003,0.005-0.005,0.007
		l-3.151,3.152c-0.383,0.384-0.383,1.005,0,1.389l0.694,0.694C1.174,15.904,1.425,16,1.676,16s0.503-0.096,0.694-0.288l3.149-3.151
		c0.003-0.002,0.007-0.003,0.01-0.006c0.674-0.638,1.554-0.654,2.887-0.678l0.521-0.012c1.666,0,3.554-0.715,4.949-2.111
		C16.394,7.246,16.717,3.502,14.608,1.393z M13.9,2.1c0.289,0.289,0.499,0.628,0.674,0.985l-1.965,1.966l-1.665-1.666l1.968-1.969
		C13.274,1.594,13.612,1.812,13.9,2.1z M11.902,5.758l-2.07,2.071L8.167,6.164l2.07-2.071L11.902,5.758z M11.089,1
		c0.263,0,0.515,0.025,0.76,0.066l-1.611,1.612L9,1.441C9.677,1.156,10.387,1,11.089,1z M6.957,2.822
		C7.302,2.478,7.68,2.183,8.075,1.93L9.53,3.386L7.46,5.457L6.029,4.025C6.289,3.604,6.585,3.194,6.957,2.822z M5.554,4.964l1.2,1.2
		L5.216,7.702C5.069,6.828,5.186,5.883,5.554,4.964z M4.842,11.83c-0.003,0.003-0.005,0.008-0.008,0.011l-0.676-0.676
		c0.004-0.003,0.009-0.004,0.012-0.008c0.404-0.427,0.628-0.906,0.76-1.426c0.172,0.265,0.368,0.517,0.598,0.747
		c0.228,0.228,0.475,0.425,0.737,0.596C5.745,11.204,5.268,11.426,4.842,11.83z M6.234,9.771C5.942,9.479,5.731,9.136,5.557,8.775
		L7.46,6.871l1.665,1.666l-1.911,1.912C6.855,10.272,6.52,10.056,6.234,9.771z M9.047,10.87c-0.268,0-0.524-0.025-0.773-0.067
		l1.559-1.56l1.218,1.218C10.398,10.724,9.719,10.87,9.047,10.87z M13.179,9.047c-0.366,0.366-0.769,0.676-1.191,0.938l-1.448-1.449
		l2.07-2.07l1.452,1.453C13.811,8.313,13.528,8.697,13.179,9.047z M13.315,5.758l1.602-1.602c0.154,0.903,0.028,1.886-0.369,2.834
		L13.315,5.758z"/>
</g>
</svg>
