<?xml version="1.0" encoding="utf-8"?>
<!-- Generator: Adobe Illustrator 16.0.2, SVG Export Plug-In . SVG Version: 6.00 Build 0)  -->
<!DOCTYPE svg PUBLIC "-//W3C//DTD SVG 1.1//EN" "http://www.w3.org/Graphics/SVG/1.1/DTD/svg11.dtd">
<svg version="1.1" id="Layer_1" xmlns="http://www.w3.org/2000/svg" xmlns:xlink="http://www.w3.org/1999/xlink" x="0px" y="0px"
	 width="16px" height="16px" viewBox="0 0 16 16" enable-background="new 0 0 16 16" xml:space="preserve">
<g id="Volleyball">
	<path d="M4.4,9.792C3.379,6.749,3.149,3.855,3.73,1.222C2.689,1.883,1.778,2.794,1.107,3.925c-1.361,2.323-1.431,5.046-0.41,7.329
		l0.09-0.02c1.431-0.4,2.632-0.911,3.623-1.422C4.4,9.803,4.4,9.803,4.4,9.792z M7.553,0C6.632,0.05,5.742,0.25,4.901,0.611
		l-0.08,0.321c-0.67,2.553-0.5,5.367,0.48,8.38C6.312,8.701,7.002,8.141,7.393,7.83c0.03-0.02,0.04-0.03,0.07-0.05
		c-0.01-0.04-0.02-0.08-0.03-0.13C7.213,6.568,6.632,3.725,7.553,0z M8.224,8.611c-0.05-0.02-0.09-0.03-0.14-0.05
		c-0.02,0.02-0.03,0.03-0.06,0.05c-0.851,0.681-3.073,2.483-6.846,3.555c0.44,0.731,1.011,1.402,1.691,1.972l0.36-0.1
		c2.602-0.721,5.114-2.252,7.306-4.425C9.515,9.082,8.694,8.781,8.224,8.611z M12.067,1.092C10.966,0.441,9.775,0.09,8.584,0
		l-0.03,0.11c-0.35,1.362-0.48,2.593-0.5,3.665C11.977,4.706,14.499,6.408,16,7.79C15.94,5.117,14.529,2.543,12.067,1.092z
		 M14.489,12.516c-1.061-1.041-2.102-1.812-3.052-2.393c-2.232,2.293-4.824,3.925-7.526,4.746c0.01,0.01,0.02,0.01,0.03,0.02
		C5.211,15.64,6.612,16,7.994,16c2.542,0,5.024-1.211,6.565-3.414L14.489,12.516z M15.65,8.831
		c-1.321-1.312-3.713-3.043-7.586-4.015c0.06,1.211,0.25,2.133,0.35,2.633c0.02,0.07,0.03,0.12,0.04,0.18
		c0.03,0.01,0.07,0.02,0.11,0.04c1.031,0.371,3.743,1.342,6.525,4.035c0.44-0.831,0.721-1.712,0.841-2.593L15.65,8.831z"/>
</g>
</svg>
