<?xml version="1.0" encoding="utf-8"?>
<!-- Generator: Adobe Illustrator 16.0.2, SVG Export Plug-In . SVG Version: 6.00 Build 0)  -->
<!DOCTYPE svg PUBLIC "-//W3C//DTD SVG 1.1//EN" "http://www.w3.org/Graphics/SVG/1.1/DTD/svg11.dtd">
<svg version="1.1" id="Layer_1" xmlns="http://www.w3.org/2000/svg" xmlns:xlink="http://www.w3.org/1999/xlink" x="0px" y="0px"
	 width="16px" height="16px" viewBox="0 0 16 16" enable-background="new 0 0 16 16" xml:space="preserve">
<g id="Water-polo">
	<path d="M1.39,12.5c0.84,1.25,2.04,2.24,3.43,2.84h0.01l0.94-2.84H1.39z"/>
	<path d="M6.82,12.5l-1.06,3.18C6.47,15.89,7.22,16,8,16c0.8,0,1.57-0.12,2.3-0.34L9.23,12.5H6.82z"/>
	<path d="M11.23,15.32c1.37-0.6,2.55-1.59,3.38-2.82h-4.32L11.23,15.32z"/>
	<path d="M0.1,9.29c0.13,0.78,0.37,1.52,0.71,2.21h14.38c0.31-0.64,0.54-1.32,0.68-2.04c-0.77,0.18-3.48,0.78-7.35,0.78
		C6.11,10.24,3.23,10.01,0.1,9.29z"/>
	<path d="M4.86,0.64c-1.41,0.6-2.62,1.6-3.47,2.86h4.42L4.86,0.64z"/>
	<path d="M9.17,3.5l1.06-3.18C9.52,0.11,8.77,0,8,0C7.24,0,6.5,0.11,5.8,0.31L6.86,3.5H9.17z"/>
	<path d="M14.61,3.5c-0.84-1.25-2.04-2.24-3.43-2.84L10.23,3.5H14.61z"/>
	<path d="M15.9,6.73c-0.13-0.79-0.37-1.54-0.71-2.23H0.81C0.47,5.19,0.23,5.93,0.1,6.71c2.956-0.679,5.681-0.908,8.014-0.908
		C12.206,5.802,15.091,6.507,15.9,6.73z"/>
	<path d="M15.99,7.79l-0.16-0.05C15.783,7.727,12.706,6.81,8.071,6.81c-2.311,0-5.01,0.229-7.911,0.911L0.01,7.76C0,7.84,0,7.92,0,8
		s0,0.17,0.01,0.25l0.13,0.03c3.077,0.712,5.924,0.943,8.324,0.943c4.408,0,7.307-0.78,7.346-0.793l0.18-0.05C16,8.26,16,8.13,16,8
		C16,7.93,16,7.86,15.99,7.79z"/>
</g>
</svg>
