<?xml version="1.0" encoding="utf-8"?>
<!-- Generator: Adobe Illustrator 16.0.2, SVG Export Plug-In . SVG Version: 6.00 Build 0)  -->
<!DOCTYPE svg PUBLIC "-//W3C//DTD SVG 1.1//EN" "http://www.w3.org/Graphics/SVG/1.1/DTD/svg11.dtd">
<svg version="1.1" id="Layer_1" xmlns="http://www.w3.org/2000/svg" xmlns:xlink="http://www.w3.org/1999/xlink" x="0px" y="0px"
	 width="16px" height="16px" viewBox="0 0 16 16" enable-background="new 0 0 16 16" xml:space="preserve">
<g id="Whistle_1_">
	<path d="M15.503,4.999H5.001c-3.11,0-5.56,2.84-4.89,6.081c0.41,1.95,2.04,3.51,4.01,3.84c0.3,0.06,0.59,0.08,0.88,0.08
		c2.42,0,4.441-1.72,4.901-4c0.069-0.32,0.31-1.19,0.85-1.67c0.83-0.74,3.31-1.16,4.14-1.29c0.19-0.02,0.341-0.15,0.4-0.33
		l0.68-2.06C16.083,5.329,15.843,4.999,15.503,4.999z M5.001,13c-1.66,0-3-1.34-3-3c0-1.661,1.34-3,3-3c1.661,0,3.001,1.34,3.001,3
		C8.002,11.66,6.662,13,5.001,13z M5.001,7.999c-1.1,0-2,0.9-2,2c0,1.1,0.9,2,2,2s2.001-0.9,2.001-2
		C7.002,8.899,6.102,7.999,5.001,7.999z"/>
	<path d="M5.002,4.502c-0.277,0-0.5-0.224-0.5-0.5V1.5c0-0.276,0.223-0.5,0.5-0.5c0.276,0,0.5,0.224,0.5,0.5v2.502
		C5.502,4.279,5.279,4.502,5.002,4.502z"/>
	<path d="M6.749,4.502c-0.1,0-0.202-0.03-0.29-0.093C6.234,4.25,6.182,3.937,6.342,3.712l1.365-1.917
		c0.159-0.226,0.471-0.278,0.697-0.117c0.225,0.16,0.277,0.473,0.117,0.697L7.157,4.292C7.059,4.429,6.905,4.502,6.749,4.502z"/>
	<path d="M3.187,4.502c-0.157,0-0.311-0.073-0.408-0.21L1.414,2.375c-0.16-0.226-0.107-0.537,0.118-0.697
		C1.757,1.519,2.07,1.57,2.229,1.795l1.364,1.917C3.754,3.938,3.701,4.25,3.476,4.41C3.388,4.472,3.287,4.502,3.187,4.502z"/>
</g>
</svg>
